# Blender v2.79 (sub 0) OBJ File: 'DisplayCase.blend'
# www.blender.org
mtllib DisplayCase.mtl
o Cube
v 5.000000 -0.327574 -5.000000
v 5.000000 -0.327574 5.000000
v -5.000000 -0.327574 4.999999
v -4.999998 -0.327574 -5.000002
v 5.000000 0.342851 -5.000000
v 5.000000 0.342851 5.000000
v -5.000000 0.342851 4.999999
v -4.999999 0.342851 -5.000002
v 5.000000 -0.327574 -2.838941
v 5.000000 -0.327574 2.838941
v 2.836797 -0.327574 -5.000000
v -2.836795 -0.327574 -5.000001
v 2.837590 -0.327574 5.000000
v -2.837591 -0.327574 5.000000
v -5.000000 -0.327574 2.827289
v -4.999999 -0.327574 -2.827291
v 2.836797 0.342851 -5.000000
v -2.836795 0.342851 -5.000001
v -5.000000 0.342851 2.827289
v -4.999999 0.342851 -2.827291
v 2.837590 0.342851 5.000000
v -2.837591 0.342851 5.000000
v 5.000000 0.342851 -2.838940
v 5.000000 0.342851 2.838942
v 4.090909 0.342851 4.090909
v 2.837590 0.342851 4.090909
v -2.837591 0.342851 4.090909
v -4.090909 0.342851 4.090908
v 4.090909 0.342851 2.838942
v -4.090909 0.342851 2.827289
v 4.090909 0.342851 -2.838941
v -4.090908 0.342851 -2.827291
v 4.090909 0.342851 -4.090909
v 2.836797 0.342851 -4.090909
v -2.836796 0.342851 -4.090910
v -4.090908 0.342851 -4.090910
v -2.836796 -0.327574 -2.827291
v -2.837591 -0.327574 2.827289
v 2.836797 -0.327574 -2.838941
v 2.837591 -0.327574 2.838941
v 4.090909 0.969693 4.090909
v 2.837590 0.969693 4.090909
v -2.837591 0.969693 4.090909
v -4.090909 0.969693 4.090908
v 3.163636 0.969693 3.163637
v 2.890909 0.969693 3.163637
v -2.890910 0.969693 3.163636
v -3.163637 0.969693 3.163636
v 4.090909 0.969693 2.838942
v 3.163636 0.969693 2.890910
v -3.163637 0.969693 2.890908
v -4.090909 0.969693 2.827289
v -3.163637 5.630271 2.890908
v 3.163636 5.630271 2.890910
v -3.163637 5.630271 3.163636
v -2.890910 5.630271 3.163636
v 4.090909 0.969693 -2.838941
v 3.163636 0.969693 -2.890909
v 2.890909 5.630271 3.163637
v 3.163636 5.630271 3.163637
v -3.163636 0.969693 -2.890910
v -4.090908 0.969693 -2.827291
v 3.163636 0.969693 -3.163636
v 2.890909 0.969693 -3.163636
v -2.890908 0.969693 -3.163638
v -3.163636 0.969693 -3.163638
v 4.090909 0.969693 -4.090909
v 2.836797 0.969693 -4.090909
v -2.836796 0.969693 -4.090910
v -4.090908 0.969693 -4.090910
v 3.163636 2.616733 3.163637
v 2.890909 2.616733 3.163637
v -2.890910 2.616733 3.163636
v -3.163637 2.616733 3.163636
v 3.163636 2.616733 2.890910
v -3.163637 2.616733 2.890908
v 3.163636 5.869931 -2.890909
v -3.163636 5.869931 -2.890910
v 3.163636 5.869931 -3.163636
v 2.890909 5.869931 -3.163636
v 3.163636 2.616733 -2.890909
v -3.163636 5.869931 -3.163638
v -2.890908 5.869931 -3.163638
v -3.163636 2.616733 -2.890910
v 3.163636 2.616733 -3.163636
v 2.890909 2.616733 -3.163636
v -2.890908 2.616733 -3.163638
v -3.163636 2.616733 -3.163638
v 3.163636 5.630271 -2.890909
v -3.163636 5.630271 -2.890910
v 3.163636 5.630271 -3.163636
v 2.890909 5.630271 -3.163636
v -2.890908 5.630271 -3.163638
v -3.163636 5.630271 -3.163638
v -3.163637 5.869931 2.890908
v 3.163636 5.869931 2.890910
v -2.890910 5.869931 3.163636
v -3.163637 5.869931 3.163636
v -2.890909 5.869931 2.890908
v -2.890909 5.869931 -2.890910
v 2.890911 5.869931 -2.890909
v 2.890909 5.869931 2.890910
v 2.890909 5.869931 3.163637
v 3.163636 5.869931 3.163637
v 2.890909 5.630271 2.891501
v -2.873717 2.619754 2.891501
v 2.890909 5.630271 -2.886020
v 2.890909 2.619222 -2.886020
v 2.890909 2.619754 2.891501
v -2.884892 2.619222 -2.886020
v -2.884892 5.632214 -2.886020
v -2.873717 5.628771 2.891501
vt 0.625094 0.577685
vt 0.621072 0.573661
vt 0.625094 0.573661
vt 0.416244 0.108084
vt 0.377480 0.065849
vt 0.402216 0.041485
vt 0.063242 0.113059
vt 0.029353 0.339671
vt 0.026749 0.110902
vt 0.068334 0.381577
vt 0.111323 0.420929
vt 0.043563 0.406095
vt 0.065825 0.067977
vt 0.107435 0.029183
vt 0.110256 0.064922
vt 0.336061 0.382180
vt 0.113588 0.384334
vt 0.739935 0.730244
vt 0.795401 0.738870
vt 0.744187 0.755183
vt 0.041384 0.043380
vt 0.380306 0.110842
vt 0.419641 0.335619
vt 0.383019 0.333532
vt 0.510318 0.386718
vt 0.479695 0.422892
vt 0.461641 0.408545
vt 0.469951 0.460319
vt 0.446136 0.456244
vt 0.479939 0.716949
vt 0.510632 0.751455
vt 0.465217 0.731473
vt 0.788182 0.682888
vt 0.812749 0.687725
vt 0.516393 0.725558
vt 0.334733 0.026517
vt 0.380489 0.379069
vt 0.338934 0.417957
vt 0.798887 0.403993
vt 0.742533 0.411680
vt 0.747275 0.386477
vt 0.790339 0.460372
vt 0.815333 0.456040
vt 0.446137 0.686031
vt 0.471838 0.680666
vt 0.516416 0.413628
vt 0.000777 0.107741
vt 0.021700 0.026874
vt 0.026954 0.425836
vt 0.000256 0.344433
vt 0.108148 0.446908
vt 0.405011 0.403654
vt 0.343728 0.446908
vt 0.424745 0.420147
vt 0.445251 0.103370
vt 0.445624 0.338710
vt 0.102689 0.000256
vt 0.418819 0.021861
vt 0.337946 0.000613
vt 0.635661 0.573660
vt 0.639683 0.563101
vt 0.639683 0.573660
vt 0.621072 0.563099
vt 0.625116 0.559075
vt 0.625116 0.563099
vt 0.635661 0.577685
vt 0.639683 0.577685
vt 0.635640 0.563101
vt 0.639683 0.559075
vt 0.635640 0.559075
vt 0.506578 0.690509
vt 0.751046 0.693513
vt 0.740628 0.693591
vt 0.516575 0.690664
vt 0.506192 0.449762
vt 0.516482 0.449527
vt 0.776992 0.720024
vt 0.506050 0.460094
vt 0.828876 0.489585
vt 0.983033 0.500104
vt 0.828876 0.500104
vt 0.983033 0.723114
vt 0.828876 0.723114
vt 0.983033 0.256055
vt 0.828876 0.479065
vt 0.828876 0.256055
vt 0.828876 0.001486
vt 0.983034 0.012006
vt 0.828876 0.012006
vt 0.828877 0.967162
vt 0.983034 0.977681
vt 0.828877 0.977682
vt 0.506365 0.680573
vt 0.753417 0.459539
vt 0.751319 0.683064
vt 0.983033 0.489585
vt 0.983033 0.733633
vt 0.828876 0.733633
vt 0.828876 0.744152
vt 0.983034 0.967162
vt 0.753244 0.449037
vt 0.779868 0.422732
vt 0.828876 0.235016
vt 0.983033 0.245536
vt 0.828876 0.245536
vt 0.983033 0.744152
vt 0.742699 0.448860
vt 0.065457 0.336904
vt 0.741956 0.629891
vt 0.688892 0.682955
vt 0.688892 0.629890
vt 0.519483 0.461070
vt 0.571642 0.513230
vt 0.519483 0.513230
vt 0.038276 0.945439
vt 0.756467 0.991600
vt 0.038276 0.991600
vt 0.041612 0.948098
vt 0.757626 0.994119
vt 0.041612 0.994119
vt 0.036211 0.946014
vt 0.754403 0.992175
vt 0.036211 0.992175
vt 0.041612 0.808176
vt 0.757626 0.854198
vt 0.041612 0.854198
vt 0.036211 0.807630
vt 0.754403 0.853792
vt 0.036211 0.853791
vt 0.044280 0.809570
vt 0.755273 0.855268
vt 0.044280 0.855268
vt 0.038276 0.804055
vt 0.756467 0.850215
vt 0.038276 0.850216
vt 0.044280 0.947491
vt 0.755273 0.993189
vt 0.044280 0.993189
vt 0.642789 0.459381
vt 0.689054 0.512030
vt 0.642789 0.512030
vt 0.519483 0.559066
vt 0.571643 0.559066
vt 0.619743 0.683002
vt 0.571917 0.628578
vt 0.619743 0.628578
vt 0.058885 0.768216
vt 0.045184 0.477750
vt 0.058885 0.477750
vt 0.349351 0.768216
vt 0.363052 0.477750
vt 0.363052 0.768216
vt 0.349351 0.477750
vt 0.349351 0.452009
vt 0.058885 0.464048
vt 0.058885 0.452008
vt 0.058885 0.781917
vt 0.349351 0.793957
vt 0.058885 0.793957
vt 0.349351 0.464049
vt 0.741956 0.583260
vt 0.688892 0.583260
vt 0.689054 0.558296
vt 0.741704 0.512030
vt 0.741704 0.558296
vt 0.617478 0.513230
vt 0.571642 0.461070
vt 0.617478 0.461070
vt 0.642262 0.629890
vt 0.642261 0.682955
vt 0.349351 0.781917
vt 0.571917 0.580752
vt 0.517493 0.628578
vt 0.517493 0.580752
vt 0.033144 0.477750
vt 0.045183 0.768216
vt 0.033143 0.768216
vt 0.571917 0.683002
vt 0.375092 0.477750
vt 0.375092 0.768216
vt 0.741704 0.459381
vt 0.689054 0.459381
vt 0.754403 0.946014
vt 0.036931 0.899852
vt 0.754403 0.899852
vt 0.755273 0.947491
vt 0.044867 0.900973
vt 0.755273 0.900973
vt 0.358813 0.348805
vt 0.346629 0.095301
vt 0.358814 0.095037
vt 0.093075 0.360775
vt 0.346629 0.348805
vt 0.346843 0.360775
vt 0.817207 0.357741
vt 0.801292 0.027919
vt 0.817207 0.027639
vt 0.471534 0.027919
vt 0.800654 0.357775
vt 0.471534 0.357775
vt 0.471534 0.373313
vt 0.801635 0.373313
vt 0.455962 0.357741
vt 0.471534 0.012068
vt 0.042203 0.901055
vt 0.758088 0.901055
vt 0.038996 0.899287
vt 0.756467 0.945439
vt 0.081106 0.348805
vt 0.093049 0.095791
vt 0.093049 0.348805
vt 0.093075 0.083066
vt 0.757626 0.948098
vt 0.621072 0.577685
vt 0.332434 0.062989
vt 0.621072 0.559075
vt 0.983033 0.479065
vt 0.983034 0.001487
vt 0.983033 0.235016
vt 0.741956 0.682955
vt 0.757626 0.808177
vt 0.754403 0.807631
vt 0.755273 0.809569
vt 0.756467 0.804054
vt 0.517493 0.683002
vt 0.455963 0.027639
vt 0.801635 0.012068
vt 0.756109 0.899286
vt 0.081105 0.095037
vt 0.346843 0.083066
vn 0.0000 -1.0000 -0.0000
vn 0.0000 1.0000 -0.0000
vn -0.0000 0.0000 1.0000
vn 0.0000 0.0000 -1.0000
vn 1.0000 0.0000 0.0000
vn -1.0000 0.0000 0.0000
vn -0.0022 0.0000 -1.0000
vn -0.0000 -1.0000 0.0070
vn -0.0089 1.0000 0.0000
vn 0.0000 1.0000 -0.0001
vn 0.0179 0.0000 0.9998
vn -0.0000 0.9999 0.0111
vn 0.0111 0.9999 -0.0001
vn 0.0000 1.0000 -0.0090
vn 0.9998 0.0000 -0.0217
vn 0.9980 0.0000 0.0631
vn 0.0003 -1.0000 0.0000
vn -0.0003 -1.0000 -0.0006
vn -0.0052 -1.0000 -0.0006
vn 0.0020 0.0000 -1.0000
vn -0.0175 0.0000 0.9998
vn -0.0003 -1.0000 0.0000
vn -0.0104 0.9999 -0.0001
vn 0.0091 1.0000 0.0000
vn -0.0000 -1.0000 0.0055
vn 0.0070 -1.0000 0.0000
usemtl Material
s off
f 10/1/1 13/2/1 40/3/1
f 20/4/2 36/5/2 8/6/2
f 31/7/2 24/8/2 23/9/2
f 25/10/2 21/11/2 6/12/2
f 33/13/2 17/14/2 34/15/2
f 27/16/2 21/11/2 26/17/2
f 43/18/3 28/19/3 27/20/3
f 33/13/2 23/9/2 5/21/2
f 32/22/2 19/23/2 30/24/2
f 34/25/4 67/26/4 33/27/4
f 33/27/5 57/28/5 31/29/5
f 41/30/3 26/31/3 25/32/3
f 28/19/6 52/33/6 30/34/6
f 42/35/3 27/20/3 26/31/3
f 36/5/2 18/36/2 8/6/2
f 28/37/2 22/38/2 27/16/2
f 36/39/4 69/40/4 35/41/4
f 62/42/6 36/39/6 32/43/6
f 29/44/5 41/30/5 25/32/5
f 31/29/5 49/45/5 29/44/5
f 52/33/6 32/43/6 30/34/6
f 35/41/4 68/46/4 34/25/4
f 5/21/5 9/47/5 1/48/5
f 18/36/2 34/15/2 17/14/2
f 24/8/5 2/49/5 10/50/5
f 23/9/5 10/50/5 9/47/5
f 6/12/3 13/51/3 2/49/3
f 7/52/3 14/53/3 22/38/3
f 22/38/3 13/51/3 21/11/3
f 19/23/6 3/54/6 7/52/6
f 8/6/6 16/55/6 20/4/6
f 20/4/6 15/56/6 19/23/6
f 11/57/4 5/21/4 1/48/4
f 4/58/4 18/36/4 12/59/4
f 12/59/4 17/14/4 11/57/4
f 39/60/1 12/61/1 11/62/1
f 14/63/1 15/64/1 38/65/1
f 40/3/1 14/63/1 38/65/1
f 9/66/1 11/62/1 1/67/1
f 40/3/1 37/68/1 39/60/1
f 40/3/1 9/66/1 10/1/1
f 37/68/1 4/69/1 12/61/1
f 38/65/1 16/70/1 37/68/1
f 49/45/2 45/71/2 41/30/2
f 48/72/2 43/18/2 47/73/2
f 46/74/2 43/18/2 42/35/2
f 63/75/2 68/46/2 64/76/2
f 48/72/2 52/33/2 44/77/2
f 57/28/2 63/75/2 58/78/2
f 66/79/4 87/80/4 65/81/4
f 65/81/4 86/82/4 64/83/4
f 76/84/6 61/85/6 51/86/6
f 45/87/3 72/88/3 46/89/3
f 50/90/5 71/91/5 45/92/5
f 57/28/2 50/93/2 49/45/2
f 61/94/2 52/33/2 51/95/2
f 61/85/6 88/96/6 66/79/6
f 64/83/4 85/97/4 63/98/4
f 58/99/5 75/100/5 50/90/5
f 62/42/2 66/101/2 70/102/2
f 47/103/3 74/104/3 48/105/3
f 72/88/3 47/103/3 46/89/3
f 48/105/6 76/84/6 51/86/6
f 63/98/5 81/106/5 58/99/5
f 45/71/2 42/35/2 41/30/2
f 66/101/2 69/40/2 70/102/2
f 68/46/2 65/107/2 64/76/2
f 25/10/2 24/8/2 29/108/2
f 28/37/2 19/23/2 7/52/2
f 97/109/2 95/110/2 98/111/2
f 101/112/2 79/113/2 80/114/2
f 73/115/3 55/116/3 74/117/3
f 84/118/6 94/119/6 88/120/6
f 75/121/5 60/122/5 71/123/5
f 88/124/4 93/125/4 87/126/4
f 71/127/3 59/128/3 72/129/3
f 85/130/5 89/131/5 81/132/5
f 74/133/6 53/134/6 76/135/6
f 86/136/4 91/137/4 85/138/4
f 90/139/6 82/140/6 94/141/6
f 92/142/4 79/113/4 91/143/4
f 54/144/5 104/145/5 60/146/5
f 102/147/2 77/148/2 101/149/2
f 99/150/2 78/151/2 95/152/2
f 99/150/2 101/149/2 100/153/2
f 93/154/4 80/155/4 92/156/4
f 103/157/3 56/158/3 59/159/3
f 100/153/2 80/155/2 83/160/2
f 56/161/3 98/111/3 55/162/3
f 94/163/4 83/164/4 93/165/4
f 91/166/5 77/167/5 89/168/5
f 55/169/6 95/110/6 53/170/6
f 103/157/2 99/150/2 97/171/2
f 60/172/3 103/173/3 59/174/3
f 89/175/5 96/176/5 54/177/5
f 96/178/2 103/173/2 104/145/2
f 95/152/6 90/179/6 53/180/6
f 100/181/2 82/140/2 78/182/2
f 54/183/7 109/184/7 105/185/7
f 92/186/6 108/187/6 107/188/6
f 92/189/8 111/190/8 93/191/8
f 54/192/1 107/193/1 89/194/1
f 76/195/9 110/196/9 84/197/9
f 108/198/10 106/199/10 109/200/10
f 89/131/11 108/187/11 81/132/11
f 59/128/6 109/184/6 72/129/6
f 72/201/12 106/199/12 73/202/12
f 75/203/13 108/198/13 109/200/13
f 86/204/14 110/196/14 108/198/14
f 110/205/15 93/125/15 111/206/15
f 106/207/16 56/208/16 73/115/16
f 59/209/17 112/210/17 105/211/17
f 107/193/18 112/210/18 111/190/18
f 53/212/19 111/190/19 112/210/19
f 53/134/20 106/207/20 76/135/20
f 110/205/21 90/213/21 84/118/21
f 10/1/1 2/214/1 13/2/1
f 20/4/2 32/22/2 36/5/2
f 31/7/2 29/108/2 24/8/2
f 25/10/2 26/17/2 21/11/2
f 33/13/2 5/21/2 17/14/2
f 27/16/2 22/38/2 21/11/2
f 43/18/3 44/77/3 28/19/3
f 33/13/2 31/7/2 23/9/2
f 32/22/2 20/4/2 19/23/2
f 34/25/4 68/46/4 67/26/4
f 33/27/5 67/26/5 57/28/5
f 41/30/3 42/35/3 26/31/3
f 28/19/6 44/77/6 52/33/6
f 42/35/3 43/18/3 27/20/3
f 36/5/2 35/215/2 18/36/2
f 28/37/2 7/52/2 22/38/2
f 36/39/4 70/102/4 69/40/4
f 62/42/6 70/102/6 36/39/6
f 29/44/5 49/45/5 41/30/5
f 31/29/5 57/28/5 49/45/5
f 52/33/6 62/42/6 32/43/6
f 35/41/4 69/40/4 68/46/4
f 5/21/5 23/9/5 9/47/5
f 18/36/2 35/215/2 34/15/2
f 24/8/5 6/12/5 2/49/5
f 23/9/5 24/8/5 10/50/5
f 6/12/3 21/11/3 13/51/3
f 7/52/3 3/54/3 14/53/3
f 22/38/3 14/53/3 13/51/3
f 19/23/6 15/56/6 3/54/6
f 8/6/6 4/58/6 16/55/6
f 20/4/6 16/55/6 15/56/6
f 11/57/4 17/14/4 5/21/4
f 4/58/4 8/6/4 18/36/4
f 12/59/4 18/36/4 17/14/4
f 39/60/1 37/68/1 12/61/1
f 14/63/1 3/216/1 15/64/1
f 40/3/1 13/2/1 14/63/1
f 9/66/1 39/60/1 11/62/1
f 40/3/1 38/65/1 37/68/1
f 40/3/1 39/60/1 9/66/1
f 37/68/1 16/70/1 4/69/1
f 38/65/1 15/64/1 16/70/1
f 49/45/2 50/93/2 45/71/2
f 48/72/2 44/77/2 43/18/2
f 46/74/2 47/73/2 43/18/2
f 63/75/2 67/26/2 68/46/2
f 48/72/2 51/95/2 52/33/2
f 57/28/2 67/26/2 63/75/2
f 66/79/4 88/96/4 87/80/4
f 65/81/4 87/80/4 86/82/4
f 76/84/6 84/217/6 61/85/6
f 45/87/3 71/218/3 72/88/3
f 50/90/5 75/100/5 71/91/5
f 57/28/2 58/78/2 50/93/2
f 61/94/2 62/42/2 52/33/2
f 61/85/6 84/217/6 88/96/6
f 64/83/4 86/82/4 85/97/4
f 58/99/5 81/106/5 75/100/5
f 62/42/2 61/94/2 66/101/2
f 47/103/3 73/219/3 74/104/3
f 72/88/3 73/219/3 47/103/3
f 48/105/6 74/104/6 76/84/6
f 63/98/5 85/97/5 81/106/5
f 45/71/2 46/74/2 42/35/2
f 66/101/2 65/107/2 69/40/2
f 68/46/2 69/40/2 65/107/2
f 25/10/2 6/12/2 24/8/2
f 28/37/2 30/24/2 19/23/2
f 97/109/2 99/220/2 95/110/2
f 101/112/2 77/167/2 79/113/2
f 73/115/3 56/208/3 55/116/3
f 84/118/6 90/213/6 94/119/6
f 75/121/5 54/183/5 60/122/5
f 88/124/4 94/221/4 93/125/4
f 71/127/3 60/222/3 59/128/3
f 85/130/5 91/223/5 89/131/5
f 74/133/6 55/224/6 53/134/6
f 86/136/4 92/186/4 91/137/4
f 90/139/6 78/182/6 82/140/6
f 92/142/4 80/114/4 79/113/4
f 54/144/5 96/178/5 104/145/5
f 102/147/2 96/176/2 77/148/2
f 99/150/2 100/153/2 78/151/2
f 99/150/2 102/147/2 101/149/2
f 93/154/4 83/160/4 80/155/4
f 103/157/3 97/171/3 56/158/3
f 100/153/2 101/149/2 80/155/2
f 56/161/3 97/109/3 98/111/3
f 94/163/4 82/140/4 83/164/4
f 91/166/5 79/113/5 77/167/5
f 55/169/6 98/111/6 95/110/6
f 103/157/2 102/147/2 99/150/2
f 60/172/3 104/145/3 103/173/3
f 89/175/5 77/148/5 96/176/5
f 96/178/2 102/225/2 103/173/2
f 95/152/6 78/151/6 90/179/6
f 100/181/2 83/164/2 82/140/2
f 54/183/7 75/121/7 109/184/7
f 92/186/6 86/136/6 108/187/6
f 92/189/22 107/193/22 111/190/22
f 54/192/1 105/211/1 107/193/1
f 76/195/23 106/199/23 110/196/23
f 108/198/10 110/196/10 106/199/10
f 89/131/11 107/188/11 108/187/11
f 59/128/6 105/185/6 109/184/6
f 72/201/12 109/200/12 106/199/12
f 75/203/24 81/226/24 108/198/24
f 86/204/14 87/227/14 110/196/14
f 110/205/15 87/126/15 93/125/15
f 106/207/16 112/228/16 56/208/16
f 59/209/25 56/229/25 112/210/25
f 107/193/17 105/211/17 112/210/17
f 53/212/26 90/230/26 111/190/26
f 53/134/20 112/228/20 106/207/20
f 110/205/21 111/206/21 90/213/21
