# Blender v2.79 (sub 0) OBJ File: 'japanese assets.blend'
# www.blender.org
o Cube.006
v 0.033423 0.101159 -0.965190
v 0.057266 0.115227 0.778570
v -0.057003 0.115227 0.778569
v -0.028442 0.101159 -0.965190
v 0.033423 0.260014 -1.231873
v 0.057266 0.245807 0.778570
v -0.057003 0.245807 0.778569
v -0.028442 0.260014 -1.231873
v 0.033423 0.101159 0.630462
v -0.028442 0.101159 0.630462
v 0.033423 0.260014 0.630462
v -0.028442 0.260014 0.630462
v 0.104188 0.061677 0.629313
v 0.104188 0.061677 0.762619
v -0.103925 0.061677 0.762619
v 0.104187 0.299496 0.762620
v -0.103925 0.299496 0.762619
v 0.104187 0.299496 0.629313
v -0.103925 0.061677 0.629312
v -0.103925 0.299496 0.629312
v 0.057266 0.115227 1.130319
v -0.057004 0.115227 1.130319
v 0.057265 0.245807 1.130319
v -0.057004 0.245807 1.130319
v 0.000132 0.081556 -0.965190
v 0.000131 0.115227 0.778569
v 0.000132 0.289738 -1.317697
v 0.000131 0.245807 0.778570
v 0.000131 0.260014 0.630462
v 0.000131 0.101159 0.630462
v 0.000131 0.061677 0.762619
v 0.000131 0.299496 0.762619
v 0.000131 0.299496 0.629313
v 0.000131 0.061677 0.629312
v 0.000131 0.115227 1.130319
v 0.000131 0.245807 1.130319
v 0.033423 0.179021 -1.095903
v 0.057266 0.179230 0.778570
v -0.057003 0.179230 0.778569
v -0.028442 0.179021 -1.095904
v -0.028442 0.179021 0.630462
v 0.033423 0.179021 0.630462
v 0.104187 0.178243 0.762620
v -0.103925 0.178243 0.762619
v -0.103925 0.178243 0.629312
v 0.104187 0.178243 0.629313
v 0.057265 0.179230 1.130319
v -0.057004 0.179230 1.130319
v 0.000131 0.179021 1.129647
v 0.000132 0.154268 -1.172467
v -0.115983 0.000119 0.553675
v -0.115983 0.127801 0.553675
v -0.115983 0.000119 0.344632
v -0.115983 0.127801 0.344632
v 0.093060 0.000119 0.553675
v 0.093060 0.127801 0.553675
v 0.093060 0.000119 0.344632
v 0.093060 0.127801 0.344632
v -0.011461 0.000119 0.344632
v -0.011461 0.101108 0.344632
v -0.011462 0.000119 0.553675
v -0.011462 0.101108 0.553675
v -0.063722 0.000119 0.344632
v -0.063722 0.101108 0.553675
v -0.063722 0.101108 0.344632
v -0.063722 0.000119 0.553675
v 0.040799 0.101108 0.344632
v 0.040799 0.000119 0.553675
v 0.040799 0.000119 0.344632
v 0.040799 0.101108 0.553675
v -0.115983 0.000119 -0.446856
v -0.115983 0.127801 -0.446856
v -0.115983 0.000119 -0.655898
v -0.115983 0.127801 -0.655898
v 0.093060 0.000119 -0.446856
v 0.093060 0.127801 -0.446856
v 0.093060 0.000119 -0.655898
v 0.093060 0.127801 -0.655898
v -0.011461 0.000119 -0.655898
v -0.011461 0.101108 -0.655898
v -0.011462 0.000119 -0.446856
v -0.011462 0.101108 -0.446856
v -0.063722 0.000119 -0.655898
v -0.063722 0.101108 -0.446856
v -0.063722 0.101108 -0.655898
v -0.063722 0.000119 -0.446856
v 0.040799 0.101108 -0.655898
v 0.040799 0.000119 -0.446856
v 0.040799 0.000119 -0.655898
v 0.040799 0.101108 -0.446856
vt 0.424523 0.854294
vt 0.459626 0.854294
vt 0.488454 0.888278
vt 0.424523 0.888278
vt 0.421719 0.771729
vt 0.386697 0.774114
vt 0.355633 0.742249
vt 0.419416 0.737906
vt 0.580131 0.830276
vt 0.627968 0.830283
vt 0.652218 0.876666
vt 0.580601 0.876655
vt 0.209625 0.575136
vt 0.209625 0.610239
vt 0.029328 0.610239
vt 0.029328 0.575136
vt 0.000622 0.214960
vt 0.000985 0.165200
vt 0.955544 0.172165
vt 0.885489 0.221416
vt 0.132232 0.339991
vt 0.018508 0.329886
vt 0.024541 0.307991
vt 0.112172 0.302188
vt 0.530370 0.812713
vt 0.530370 0.830268
vt 0.506105 0.876644
vt 0.506105 0.812713
vt 0.885490 0.071247
vt 0.955531 0.120520
vt 0.000970 0.127190
vt 0.000622 0.077431
vt 0.999855 0.147398
vt 0.001113 0.147646
vt 0.818067 0.290055
vt 0.000145 0.280351
vt 0.000273 0.262796
vt 0.818143 0.268763
vt 0.357969 0.972524
vt 0.357969 0.904194
vt 0.421900 0.904194
vt 0.421900 0.972524
vt 0.631944 0.972524
vt 0.568013 0.972524
vt 0.568013 0.904195
vt 0.631944 0.904195
vt 0.770371 0.972524
vt 0.695875 0.972524
vt 0.695875 0.904194
vt 0.770371 0.904194
vt 0.493517 0.904195
vt 0.493517 0.972524
vt 0.627975 0.812697
vt 0.627968 0.792243
vt 0.652218 0.748758
vt 0.652239 0.812689
vt 0.580131 0.792251
vt 0.530370 0.792259
vt 0.506105 0.748782
vt 0.580601 0.748770
vt 0.388032 0.813414
vt 0.389421 0.854294
vt 0.360593 0.888278
vt 0.358064 0.813825
vt 0.461015 0.813414
vt 0.462349 0.774114
vt 0.493414 0.742249
vt 0.490983 0.813825
vt 0.066153 0.929313
vt 0.066154 0.970347
vt 0.031051 0.970348
vt 0.031049 0.929444
vt 0.209625 0.725569
vt 0.209625 0.760671
vt 0.029328 0.760671
vt 0.029328 0.725569
vt 0.209625 0.801576
vt 0.209625 0.840898
vt 0.029328 0.840898
vt 0.029328 0.801576
vt 0.209625 0.649562
vt 0.209625 0.690466
vt 0.029328 0.690466
vt 0.029328 0.649562
vt 0.101257 0.929443
vt 0.101257 0.970347
vt 0.841988 0.972524
vt 0.841988 0.904195
vt 0.905918 0.904195
vt 0.905918 0.972524
vt 0.818157 0.023879
vt 0.000288 0.029595
vt 0.000145 0.009143
vt 0.818074 0.000145
vt 0.105973 0.375339
vt 0.020251 0.355214
vt 0.209625 0.876001
vt 0.029328 0.876001
vt 0.427328 0.771729
vt 0.429631 0.737906
vt 0.191087 0.375338
vt 0.239303 0.348041
vt 0.101257 0.890118
vt 0.066153 0.890118
vt 0.031049 0.890120
vt 0.195662 0.315975
vt 0.762244 0.727088
vt 0.743179 0.692929
vt 0.806541 0.705664
vt 0.781569 0.728675
vt 0.783080 0.752841
vt 0.808221 0.763048
vt 0.802833 0.788788
vt 0.783127 0.759871
vt 0.737310 0.788788
vt 0.761714 0.761651
vt 0.759487 0.734664
vt 0.732145 0.720652
vt 0.865687 0.647121
vt 0.865687 0.662864
vt 0.813151 0.662864
vt 0.813151 0.647121
vt 0.000000 0.000000
vt 0.000000 0.000000
vt 0.000000 0.000000
vt 0.000000 0.000000
vt 0.000000 0.000000
vt 0.000000 0.000000
vt 0.000000 0.000000
vt 0.000000 0.000000
vt 0.865687 0.615635
vt 0.865687 0.631378
vt 0.813151 0.631378
vt 0.813151 0.615635
vt 0.759283 0.753589
vt 0.729038 0.763203
vt 0.726623 0.741680
vt 0.758300 0.744085
vt 0.782556 0.741582
vt 0.811129 0.729530
vt 0.811965 0.746718
vt 0.782914 0.747152
vt 0.865687 0.599893
vt 0.813151 0.599893
vt 0.000000 0.000000
vt 0.000000 0.000000
vt 0.845764 0.725071
vt 0.824334 0.692929
vt 0.888097 0.700101
vt 0.864925 0.725092
vt 0.867640 0.752694
vt 0.894144 0.761238
vt 0.887973 0.787023
vt 0.867265 0.757894
vt 0.824834 0.787023
vt 0.847888 0.759773
vt 0.843629 0.732785
vt 0.815776 0.721078
vt 0.813128 0.647121
vt 0.813128 0.662864
vt 0.760592 0.662864
vt 0.760592 0.647121
vt 0.000000 0.000000
vt 0.000000 0.000000
vt 0.000000 0.000000
vt 0.000000 0.000000
vt 0.000000 0.000000
vt 0.000000 0.000000
vt 0.000000 0.000000
vt 0.000000 0.000000
vt 0.813128 0.615635
vt 0.813128 0.631378
vt 0.760592 0.631378
vt 0.760592 0.615636
vt 0.844839 0.751742
vt 0.815830 0.762744
vt 0.812001 0.742023
vt 0.843162 0.742253
vt 0.867960 0.732911
vt 0.894714 0.723628
vt 0.897430 0.743358
vt 0.867858 0.745744
vt 0.813128 0.599893
vt 0.760592 0.599893
vt 0.000000 0.000000
vt 0.000000 0.000000
vn -0.0000 0.2848 0.9586
vn -0.0000 -0.2855 0.9584
vn 0.0152 -0.0000 -0.9999
vn 0.0000 -1.0000 -0.0000
vn -1.0000 -0.0000 -0.0000
vn -0.7819 -0.5695 -0.2537
vn 0.0000 -0.0291 -0.9996
vn 1.0000 0.0000 0.0000
vn -0.4532 0.8914 0.0070
vn -0.3245 -0.9459 0.0058
vn 0.0000 1.0000 -0.0000
vn 0.0000 0.0291 -0.9996
vn -0.0162 0.0000 -0.9999
vn -0.3219 -0.0000 0.9468
vn 0.3218 -0.0000 0.9468
vn 0.0059 -0.0050 1.0000
vn -0.0059 -0.0050 1.0000
vn 0.2824 -0.9593 0.0059
vn 0.3999 0.9165 0.0071
vn 0.7327 -0.6217 -0.2770
vn 0.8192 -0.4544 -0.3498
vn -0.0059 0.0053 1.0000
vn 0.0059 0.0053 1.0000
vn -0.3218 0.0000 0.9468
vn -0.8572 -0.4081 -0.3141
vn 0.0000 0.0000 -1.0000
vn -0.0000 0.0000 1.0000
vn 0.4549 0.8906 0.0000
vn -0.4549 0.8906 -0.0000
s off
f 28/1/1 6/2/1 16/3/1 32/4/1
f 26/5/2 3/6/2 15/7/2 31/8/2
f 41/9/3 10/10/3 19/11/3 45/12/3
f 26/13/4 2/14/4 21/15/4 35/16/4
f 41/17/5 12/18/5 8/19/5 40/20/5
f 50/21/6 25/22/6 4/23/6 40/24/6
f 29/25/7 12/26/7 20/27/7 33/28/7
f 37/29/8 5/30/8 11/31/8 42/32/8
f 27/33/9 8/19/9 12/18/9 29/34/9
f 25/35/10 30/36/10 10/37/10 4/38/10
f 34/39/4 31/40/4 15/41/4 19/42/4
f 33/43/11 20/44/11 17/45/11 32/46/11
f 46/47/8 18/48/8 16/49/8 43/50/8
f 44/51/5 17/45/5 20/44/5 45/52/5
f 30/53/12 9/54/12 13/55/12 34/56/12
f 42/57/13 11/58/13 18/59/13 46/60/13
f 39/61/14 7/62/14 17/63/14 44/64/14
f 38/65/15 2/66/15 14/67/15 43/68/15
f 49/69/16 36/70/16 24/71/16 48/72/16
f 28/73/11 7/74/11 24/75/11 36/76/11
f 39/77/5 3/78/5 22/79/5 48/80/5
f 38/81/8 6/82/8 23/83/8 47/84/8
f 6/82/11 28/73/11 36/76/11 23/83/11
f 47/85/17 23/86/17 36/70/17 49/69/17
f 10/10/12 30/53/12 34/56/12 19/11/12
f 18/48/11 33/43/11 32/46/11 16/49/11
f 13/87/4 14/88/4 31/89/4 34/90/4
f 1/91/18 9/92/18 30/93/18 25/94/18
f 5/30/19 27/33/19 29/34/19 11/31/19
f 11/58/7 29/25/7 33/28/7 18/59/7
f 37/95/20 1/96/20 25/22/20 50/21/20
f 3/78/4 26/97/4 35/98/4 22/79/4
f 2/66/2 26/99/2 31/100/2 14/67/2
f 7/62/1 28/1/1 32/4/1 17/63/1
f 5/101/21 37/95/21 50/21/21 27/102/21
f 21/103/22 47/85/22 49/69/22 35/104/22
f 2/14/8 38/81/8 47/84/8 21/15/8
f 7/74/5 39/77/5 48/80/5 24/75/5
f 35/104/23 49/69/23 48/72/23 22/105/23
f 6/2/15 38/65/15 43/68/15 16/3/15
f 3/6/24 39/61/24 44/64/24 15/7/24
f 9/54/13 42/57/13 46/60/13 13/55/13
f 15/41/5 44/51/5 45/52/5 19/42/5
f 13/87/8 46/47/8 43/50/8 14/88/8
f 1/91/8 37/29/8 42/32/8 9/92/8
f 27/102/25 50/21/25 40/24/25 8/106/25
f 10/37/5 41/17/5 40/20/5 4/38/5
f 12/26/3 41/9/3 45/12/3 20/27/3
f 51/107/5 52/108/5 54/109/5 53/110/5
f 69/111/26 67/112/26 58/113/26 57/114/26
f 57/114/8 58/113/8 56/115/8 55/116/8
f 66/117/27 64/118/27 52/108/27 51/107/27
f 69/119/4 57/120/4 55/121/4 68/122/4
f 65/123/28 54/124/28 52/125/28 64/126/28
f 67/127/11 60/128/11 62/129/11 70/130/11
f 63/131/4 59/132/4 61/133/4 66/134/4
f 68/135/27 70/136/27 62/137/27 61/138/27
f 63/139/26 65/140/26 60/141/26 59/142/26
f 53/110/26 54/109/26 65/140/26 63/139/26
f 53/143/4 63/131/4 66/134/4 51/144/4
f 60/128/11 65/123/11 64/126/11 62/129/11
f 61/138/27 62/137/27 64/118/27 66/117/27
f 55/116/27 56/115/27 70/136/27 68/135/27
f 58/145/29 67/127/29 70/130/29 56/146/29
f 59/132/4 69/119/4 68/122/4 61/133/4
f 59/142/26 60/141/26 67/112/26 69/111/26
f 71/147/5 72/148/5 74/149/5 73/150/5
f 89/151/26 87/152/26 78/153/26 77/154/26
f 77/154/8 78/153/8 76/155/8 75/156/8
f 86/157/27 84/158/27 72/148/27 71/147/27
f 89/159/4 77/160/4 75/161/4 88/162/4
f 85/163/28 74/164/28 72/165/28 84/166/28
f 87/167/11 80/168/11 82/169/11 90/170/11
f 83/171/4 79/172/4 81/173/4 86/174/4
f 88/175/27 90/176/27 82/177/27 81/178/27
f 83/179/26 85/180/26 80/181/26 79/182/26
f 73/150/26 74/149/26 85/180/26 83/179/26
f 73/183/4 83/171/4 86/174/4 71/184/4
f 80/168/11 85/163/11 84/166/11 82/169/11
f 81/178/27 82/177/27 84/158/27 86/157/27
f 75/156/27 76/155/27 90/176/27 88/175/27
f 78/185/29 87/167/29 90/170/29 76/186/29
f 79/172/4 89/159/4 88/162/4 81/173/4
f 79/182/26 80/181/26 87/152/26 89/151/26
