# WaveFront *.obj file (generated by Autodesk ATF)

mtllib 7023d64e-eead-4f8c-9fc2-b25999a41cfb.mtl

g Body1

v 8.000000 1.000000 2.000000
v 2.000000 1.000000 2.000000
v 2.000000 6.000000 2.000000
v 8.000000 6.000000 2.000000
v 8.000000 1.000000 8.000000
v 8.000000 6.000000 8.000000
v 2.000000 1.000000 8.000000
v 2.000000 6.000000 8.000000
v 9.000000 0.500000 9.000000
v 9.000000 0.500000 1.000000
v 9.000000 1.000000 1.000000
v 9.000000 1.000000 9.000000
v 1.000000 0.500000 9.000000
v 1.000000 1.000000 9.000000
v 1.000000 0.500000 1.000000
v 1.000000 1.000000 1.000000
v 0.000000 0.000000 0.000000
v 0.000000 0.000000 10.000000
v 0.000000 0.500000 10.000000
v 0.000000 0.500000 0.000000
v 10.000000 0.000000 0.000000
v 10.000000 0.500000 0.000000
v 10.000000 0.000000 10.000000
v 10.000000 0.500000 10.000000
vt 0.000000 0.000000 0.000000
vt 0.600000 0.000000 0.000000
vt 0.000000 0.500000 0.000000
vt 0.600000 0.500000 0.000000
vt -0.000000 0.000000 0.000000
vt 0.600000 0.000000 0.000000
vt -0.000000 0.500000 0.000000
vt 0.600000 0.500000 0.000000
vt 0.000000 0.000000 0.000000
vt 0.600000 0.000000 0.000000
vt 0.000000 0.500000 0.000000
vt 0.600000 0.500000 0.000000
vt 0.000000 0.000000 0.000000
vt 0.600000 0.000000 0.000000
vt 0.000000 0.500000 0.000000
vt 0.600000 0.500000 0.000000
vt -0.300000 -0.300000 0.000000
vt 0.300000 -0.300000 0.000000
vt -0.300000 0.300000 0.000000
vt 0.300000 0.300000 0.000000
vt -0.000000 0.000000 0.000000
vt 0.800000 0.000000 0.000000
vt -0.000000 0.050000 0.000000
vt 0.800000 0.050000 0.000000
vt 0.000000 0.000000 0.000000
vt 0.800000 0.000000 0.000000
vt 0.000000 0.050000 0.000000
vt 0.800000 0.050000 0.000000
vt 0.000000 0.000000 0.000000
vt 0.800000 0.000000 0.000000
vt 0.000000 0.050000 0.000000
vt 0.800000 0.050000 0.000000
vt -0.000000 0.000000 0.000000
vt 0.800000 0.000000 0.000000
vt -0.000000 0.050000 0.000000
vt 0.800000 0.050000 0.000000
vt -0.300000 0.300000 0.000000
vt -0.400000 -0.400000 0.000000
vt -0.300000 -0.300000 0.000000
vt 0.400000 -0.400000 0.000000
vt 0.300000 -0.300000 0.000000
vt 0.300000 0.300000 0.000000
vt 0.400000 0.400000 0.000000
vt -0.400000 0.400000 0.000000
vt 0.000000 0.000000 0.000000
vt 1.000000 0.000000 0.000000
vt 0.000000 0.050000 0.000000
vt 1.000000 0.050000 0.000000
vt -0.000000 0.000000 0.000000
vt 1.000000 0.000000 0.000000
vt -0.000000 0.050000 0.000000
vt 1.000000 0.050000 0.000000
vt -0.000000 0.000000 0.000000
vt 1.000000 0.000000 0.000000
vt -0.000000 0.050000 0.000000
vt 1.000000 0.050000 0.000000
vt 0.000000 0.000000 0.000000
vt 1.000000 0.000000 0.000000
vt 0.000000 0.050000 0.000000
vt 1.000000 0.050000 0.000000
vt 0.400000 0.400000 0.000000
vt 0.500000 0.500000 0.000000
vt -0.400000 0.400000 0.000000
vt -0.500000 0.500000 0.000000
vt -0.400000 -0.400000 0.000000
vt -0.500000 -0.500000 0.000000
vt 0.500000 -0.500000 0.000000
vt 0.400000 -0.400000 0.000000
vt -0.500000 -0.500000 0.000000
vt 0.500000 -0.500000 0.000000
vt -0.500000 0.500000 0.000000
vt 0.500000 0.500000 0.000000
vn 0.000000 0.000000 -0.100000
vn 0.000000 0.000000 -0.100000
vn 0.000000 0.000000 -0.100000
vn 0.000000 0.000000 -0.100000
vn 0.100000 0.000000 0.000000
vn 0.100000 0.000000 0.000000
vn 0.100000 0.000000 0.000000
vn 0.100000 0.000000 0.000000
vn 0.000000 0.000000 0.100000
vn 0.000000 0.000000 0.100000
vn 0.000000 0.000000 0.100000
vn 0.000000 0.000000 0.100000
vn -0.100000 0.000000 0.000000
vn -0.100000 0.000000 0.000000
vn -0.100000 0.000000 0.000000
vn -0.100000 0.000000 0.000000
vn 0.000000 0.100000 0.000000
vn 0.000000 0.100000 0.000000
vn 0.000000 0.100000 0.000000
vn 0.000000 0.100000 0.000000
vn 0.100000 0.000000 0.000000
vn 0.100000 0.000000 0.000000
vn 0.100000 0.000000 0.000000
vn 0.100000 0.000000 0.000000
vn 0.000000 0.000000 0.100000
vn 0.000000 0.000000 0.100000
vn 0.000000 0.000000 0.100000
vn 0.000000 0.000000 0.100000
vn -0.100000 0.000000 0.000000
vn -0.100000 0.000000 0.000000
vn -0.100000 0.000000 0.000000
vn -0.100000 0.000000 0.000000
vn 0.000000 0.000000 -0.100000
vn 0.000000 0.000000 -0.100000
vn 0.000000 0.000000 -0.100000
vn 0.000000 0.000000 -0.100000
vn 0.000000 0.100000 0.000000
vn 0.000000 0.100000 0.000000
vn 0.000000 0.100000 0.000000
vn 0.000000 0.100000 0.000000
vn 0.000000 0.100000 0.000000
vn 0.000000 0.100000 0.000000
vn 0.000000 0.100000 0.000000
vn 0.000000 0.100000 0.000000
vn -0.100000 0.000000 0.000000
vn -0.100000 0.000000 0.000000
vn -0.100000 0.000000 0.000000
vn -0.100000 0.000000 0.000000
vn 0.000000 0.000000 -0.100000
vn 0.000000 0.000000 -0.100000
vn 0.000000 0.000000 -0.100000
vn 0.000000 0.000000 -0.100000
vn 0.100000 0.000000 0.000000
vn 0.100000 0.000000 0.000000
vn 0.100000 0.000000 0.000000
vn 0.100000 0.000000 0.000000
vn 0.000000 -0.000000 0.100000
vn 0.000000 -0.000000 0.100000
vn 0.000000 -0.000000 0.100000
vn 0.000000 -0.000000 0.100000
vn 0.000000 0.100000 0.000000
vn 0.000000 0.100000 0.000000
vn 0.000000 0.100000 0.000000
vn 0.000000 0.100000 0.000000
vn 0.000000 0.100000 0.000000
vn 0.000000 0.100000 0.000000
vn 0.000000 0.100000 0.000000
vn 0.000000 0.100000 0.000000
vn 0.000000 -0.100000 0.000000
vn 0.000000 -0.100000 0.000000
vn 0.000000 -0.100000 0.000000
vn 0.000000 -0.100000 0.000000
usemtl Steel_-_Satin
f 1/1/1 2/2/2 4/3/3
f 4/3/3 2/2/2 3/4/4
f 5/5/5 1/6/6 6/7/7
f 6/7/7 1/6/6 4/8/8
f 7/9/9 5/10/10 8/11/11
f 8/11/11 5/10/10 6/12/12
f 2/13/13 7/14/14 3/15/15
f 3/15/15 7/14/14 8/16/16
f 3/17/17 8/18/18 4/19/19
f 4/19/19 8/18/18 6/20/20
f 9/21/21 10/22/22 12/23/23
f 12/23/23 10/22/22 11/24/24
f 13/25/25 9/26/26 14/27/27
f 14/27/27 9/26/26 12/28/28
f 15/29/29 13/30/30 16/31/31
f 16/31/31 13/30/30 14/32/32
f 10/33/33 15/34/34 11/35/35
f 11/35/35 15/34/34 16/36/36
f 1/37/37 16/38/38 2/39/39
f 2/39/39 16/38/38 14/40/40
f 2/39/39 14/40/40 7/41/41
f 7/41/41 14/40/40 5/42/42
f 5/42/42 14/40/40 12/43/43
f 5/42/42 12/43/43 11/44/44
f 16/38/38 1/37/37 11/44/44
f 11/44/44 1/37/37 5/42/42
f 17/45/45 18/46/46 20/47/47
f 20/47/47 18/46/46 19/48/48
f 21/49/49 17/50/50 22/51/51
f 22/51/51 17/50/50 20/52/52
f 23/53/53 21/54/54 24/55/55
f 24/55/55 21/54/54 22/56/56
f 18/57/57 23/58/58 19/59/59
f 19/59/59 23/58/58 24/60/60
f 9/61/61 24/62/62 10/63/63
f 10/63/63 24/62/62 22/64/64
f 10/63/63 22/64/64 15/65/65
f 15/65/65 22/64/64 20/66/66
f 15/65/65 20/66/66 19/67/67
f 9/61/61 13/68/68 24/62/62
f 24/62/62 13/68/68 19/67/67
f 19/67/67 13/68/68 15/65/65
f 23/69/69 18/70/70 21/71/71
f 21/71/71 18/70/70 17/72/72

# 24 vertices
# 72 texture params
# 72 normals
# 44 facets

# 1 groups
