# Blender v2.79 (sub 0) OBJ File: 'Modular Assets - Museum.blend'
# www.blender.org
mtllib Wall - Room.mtl
o Cube.001_Cube.000
v -1.000000 -0.050000 1.000000
v -1.000000 0.050000 1.000000
v -1.000000 -0.050000 -1.000000
v -1.000000 0.050000 -1.000000
v 1.000000 -0.050000 1.000000
v 1.000000 0.050000 1.000000
v 1.000000 -0.050000 -1.000000
v 1.000000 0.050000 -1.000000
v 0.846154 -0.050000 -1.000000
v 0.846154 0.050000 -1.000000
v 0.846154 -0.050000 1.000000
v 0.846154 0.050000 1.000000
v 0.846154 1.919594 1.000000
v 0.846154 2.026428 -1.000000
v -1.000000 2.026428 -1.000000
v 1.000000 2.026428 -1.000000
v 1.000000 2.026428 1.000000
v 0.846154 2.026428 1.000000
v -1.000000 1.919594 -1.000000
v 1.000000 1.919594 1.000000
v 0.846154 1.919594 -1.000000
v 1.000000 1.919594 -1.000000
v -0.846154 2.026428 0.845105
v -0.846154 1.919594 0.845105
v -1.000000 2.026428 0.998096
v -1.000000 1.919594 0.998096
vt 0.452705 0.099426
vt 0.453450 0.079330
vt 0.454924 0.079633
vt 0.475779 0.079950
vt 0.479140 0.109937
vt 0.068659 0.400409
vt 0.049927 0.399016
vt 0.067686 0.398134
vt 0.419935 0.030857
vt 0.445045 0.064577
vt 0.422871 0.061852
vt 0.423582 0.063991
vt 0.444936 0.066000
vt 0.011397 0.459653
vt 0.502208 0.991365
vt 0.011397 0.991365
vt 0.452037 0.048794
vt 0.040766 0.364107
vt 0.037768 0.387806
vt 0.038807 0.363021
vt 0.450501 0.098018
vt 0.494998 0.066387
vt 0.471256 0.035232
vt 0.050014 0.400339
vt 0.510284 0.538908
vt 0.991418 0.983453
vt 0.509826 0.983453
vt 0.076006 0.427948
vt 0.046869 0.417933
vt 0.032028 0.352969
vt 0.414843 0.052853
vt 0.006785 0.414465
vt 0.034135 0.440258
vt 0.459239 0.109156
vt 0.019518 0.392140
vt 0.993238 0.494496
vt 0.506694 0.007629
vt 0.993230 0.007629
vt 0.502208 0.459653
vt 0.039331 0.387888
vt 0.991418 0.538908
vt 0.076424 0.409272
vt 0.506695 0.494496
vt 0.011000 0.356007
vn 0.0000 0.0000 -1.0000
vn 0.0000 0.0000 1.0000
vn 0.0000 1.0000 0.0000
vn 0.0000 -1.0000 0.0000
vn 1.0000 0.0000 0.0000
vn -1.0000 0.0000 0.0000
vn -0.0010 0.0000 1.0000
usemtl None
s off
f 10/1/1 7/2/1 9/3/1
f 10/1/1 3/4/1 4/5/1
f 21/6/1 16/7/1 22/8/1
f 2/9/2 11/10/2 12/11/2
f 6/12/2 11/10/2 5/13/2
f 10/14/3 2/15/3 12/16/3
f 3/4/4 11/10/4 1/17/4
f 16/7/5 20/18/5 22/8/5
f 20/18/2 18/19/2 13/20/2
f 9/3/4 5/13/4 11/10/4
f 6/12/5 7/2/5 8/21/5
f 4/22/6 1/17/6 2/23/6
f 18/19/3 16/7/3 14/24/3
f 26/25/4 21/26/4 13/27/4
f 14/24/1 19/28/1 15/29/1
f 20/18/5 8/21/5 22/8/5
f 6/12/2 13/30/2 12/31/2
f 26/32/6 15/29/6 19/33/6
f 10/34/1 22/8/1 8/21/1
f 25/35/3 14/24/3 15/29/3
f 13/36/6 10/37/6 12/38/6
f 25/35/7 13/20/7 18/19/7
f 10/1/1 8/21/1 7/2/1
f 10/1/1 9/3/1 3/4/1
f 21/6/1 14/24/1 16/7/1
f 2/9/2 1/17/2 11/10/2
f 6/12/2 12/11/2 11/10/2
f 10/14/3 4/39/3 2/15/3
f 3/4/4 9/3/4 11/10/4
f 16/7/5 17/40/5 20/18/5
f 20/18/2 17/40/2 18/19/2
f 9/3/4 7/2/4 5/13/4
f 6/12/5 5/13/5 7/2/5
f 4/22/6 3/4/6 1/17/6
f 18/19/3 17/40/3 16/7/3
f 26/25/4 19/41/4 21/26/4
f 14/24/1 21/6/1 19/28/1
f 20/18/5 6/12/5 8/21/5
f 6/12/2 20/18/2 13/30/2
f 26/32/6 25/35/6 15/29/6
f 10/34/1 21/42/1 22/8/1
f 25/35/3 18/19/3 14/24/3
f 13/36/6 21/43/6 10/37/6
f 25/35/7 26/44/7 13/20/7
l 23 24
