# Blender v2.79 (sub 0) OBJ File: 'Room layout1.blend'
# www.blender.org
mtllib Room layout-5-roof.mtl
o Cube.002_Cube
v -1.471119 1.371116 1.921880
v -1.471119 1.447682 1.924729
v -1.471119 1.371116 -1.647229
v -1.471119 1.447682 -1.647229
v 1.445746 1.371116 1.939684
v 1.445746 1.447682 1.924729
v 1.445746 1.371116 -1.647229
v 1.445746 1.447682 -1.647229
v -2.198507 1.371116 -1.647229
v -2.260030 1.371116 1.921880
v -2.389407 1.447682 1.924729
v -2.389407 1.447682 -1.647229
v -2.277596 1.371116 -1.647229
v -2.261219 1.055056 1.921880
v -2.318787 1.131623 1.921880
v -2.468497 1.447682 -1.647229
v -1.471119 1.371116 -0.177559
v -1.471119 1.447682 -0.177559
v 1.445746 1.371116 -0.177559
v 1.445746 1.447682 -0.177559
v -2.198507 1.371116 -0.177559
v -2.389407 1.447682 -0.177559
v -2.277596 1.055056 -0.289389
v -2.468497 1.131623 -0.289389
v -3.875709 1.131623 -0.291158
v -4.031471 1.447682 -1.647229
v -4.031471 1.371116 -1.647229
v -3.875709 1.055056 -0.291158
v -4.878779 1.055056 -0.289389
v -4.878779 1.055056 1.152080
v -4.900612 1.131623 1.152080
v -4.900612 1.131623 -0.289389
v -2.261219 1.055056 5.548507
v -2.318787 1.131623 5.548507
v -4.878779 1.055056 5.548507
v -4.900612 1.131623 5.548507
v -1.471119 1.371116 2.009378
v -1.471119 1.447682 2.009378
v -2.260030 1.371116 2.009378
v -2.389407 1.447682 2.009378
v -2.261219 1.055056 2.009378
v -2.318787 1.131623 2.009378
v -0.034871 1.055056 1.935367
v -0.092440 1.131623 1.935367
v -0.034871 1.055056 4.049371
v -0.092440 1.131623 4.049371
v -1.444169 1.055056 5.548507
v -1.501738 1.131623 5.548507
v -1.444169 1.055056 1.935367
v -1.501738 1.131623 1.935367
v -1.471119 1.371116 2.009130
v -1.471119 1.447682 2.009130
v 1.445746 1.447682 2.009130
v 1.445746 1.371116 2.026934
v -1.471119 1.125556 1.921880
v 1.328190 1.125556 1.939684
v -2.260030 1.125556 1.921880
v -1.471119 1.125556 2.009378
v -2.260030 1.125556 2.009378
v -1.471119 1.125556 2.009130
v 1.328190 1.125556 2.026934
v -1.471119 1.371116 4.548720
v -1.471119 1.447682 4.548720
v 1.445746 1.447682 4.548720
v 1.445746 1.371116 4.566524
v 4.191775 1.447682 -1.129154
v 3.915692 1.318398 -1.166425
v 4.191775 1.371116 -0.177559
v 4.191775 1.447682 -0.177559
v 4.191775 1.447682 1.924729
v 4.191775 1.371116 1.939684
v 4.191775 1.447682 2.009130
v 4.191775 1.371116 2.026934
v 4.191775 1.447682 4.548720
v 4.191775 1.371116 4.566524
v -1.471119 1.447682 -2.781794
v -1.471119 1.371116 -2.781794
v 1.421954 1.371116 -2.781794
v 1.445746 1.447682 -2.781794
v -2.389407 1.447682 -2.781794
v -2.198507 1.371116 -2.781794
v -2.468497 1.113496 -2.781794
v -2.277596 1.036929 -2.781794
v -4.031471 1.113496 -2.781794
v -4.031471 1.036929 -2.781794
v -1.471119 1.447682 -2.631631
v -2.389407 1.447682 -2.631631
v 1.421954 1.371116 -2.631631
v 1.445746 1.447682 -2.631631
v -1.471119 1.371116 -2.631631
v -2.198507 1.371116 -2.631631
v 1.421954 1.055973 -2.781794
v -1.471119 1.055973 -2.781794
v -2.198507 1.055973 -2.781794
v 1.421954 1.055973 -2.631631
v -1.471119 1.055973 -2.631631
v -2.198507 1.055973 -2.631631
v -2.198507 1.140386 -2.631631
v -1.471119 1.140386 -2.631631
v 1.421954 1.140386 -2.631631
v 1.421954 1.140386 -2.781794
v -2.198507 1.140386 -2.781794
v -1.471119 1.140386 -2.781794
v 1.421954 1.055973 -4.748690
v -1.471119 1.055973 -5.233422
v -2.198507 1.055973 -5.233422
v -2.198507 1.140386 -5.233422
v 1.421954 1.140386 -4.748690
v -1.471119 1.140386 -5.233422
v 1.445746 1.447682 -2.805829
v 1.445746 1.097386 -2.805829
v 4.191775 1.447682 -2.805829
v 4.191775 1.371116 -2.805829
v 5.035483 1.106683 -1.191107
v 5.035483 1.030116 -1.189661
v 5.035483 1.106683 -2.805829
v 5.035483 1.030116 -2.805829
v 1.445746 1.447682 -5.324414
v 1.445746 1.032313 -5.324414
v 4.191775 1.447682 -5.324414
v 4.191775 1.032313 -5.324414
v 5.035483 1.106683 -5.324414
v 5.035483 1.030116 -5.324414
v 4.197546 1.447682 -1.050561
v 3.921463 1.318398 -1.050561
v 5.041255 1.106683 -1.112514
v 5.041255 1.030116 -1.073796
v 3.912863 1.050162 -1.162421
v 4.980955 0.894472 -1.185656
v 3.918634 1.050162 -1.046557
v 4.986726 0.894472 -1.069792
v -4.050366 1.140386 -2.631631
v -4.050366 1.055973 -2.631631
v -4.050366 1.055973 -2.781794
v -4.050366 1.140386 -2.781794
v -4.050366 1.055973 -5.233422
v -4.050366 1.140386 -5.233422
v -3.913452 1.447682 -1.647229
v -3.769452 1.131623 -0.291025
v -3.755037 1.055056 -0.291025
v -3.899037 1.371116 -1.647229
v -3.913452 1.113496 -2.781794
v -3.899037 1.036929 -2.781794
v -2.401923 1.405392 -1.647229
v -2.196926 1.388600 -1.647229
v -2.401923 1.150905 -2.781794
v -2.196926 1.134113 -2.781794
v -2.401923 1.150905 -2.631631
v -2.196926 1.134113 -2.631631
v -3.899037 0.884023 -1.626520
v -4.031471 0.884023 -1.626520
v -3.931795 0.939257 -2.761085
v -4.064229 0.939257 -2.761085
vn 0.0000 1.0000 0.0000
vn 0.9550 -0.2967 0.0000
vn 0.0000 -1.0000 0.0000
vn 0.0000 0.0000 -1.0000
vn 0.3591 0.8953 -0.2637
vn -0.9759 -0.2181 0.0000
vn -0.0001 0.9739 0.2270
vn -0.9000 0.4333 0.0484
vn 0.9917 -0.1278 0.0104
vn 0.9000 -0.4333 -0.0484
vn -0.9994 0.0071 0.0347
vn 0.0346 -0.9960 0.0821
vn -0.9935 0.0000 0.1141
vn -0.0012 -0.0001 1.0000
vn 0.0001 -0.9739 -0.2270
vn -0.9617 -0.2742 0.0000
vn 0.0000 0.0000 1.0000
vn 0.6390 0.4805 0.6007
vn 1.0000 0.0000 0.0000
vn 1.0000 -0.0038 0.0000
vn -0.7993 -0.6010 0.0000
vn 0.7993 0.6010 0.0000
vn 0.0165 0.0124 -0.9998
vn -1.0000 0.0000 0.0000
vn 0.9020 -0.4318 0.0000
vn -0.0062 0.0015 1.0000
vn 0.0062 -0.0015 -1.0000
vn -0.0030 0.1155 0.9933
vn 0.6021 -0.7959 -0.0640
vn -0.0122 -0.9997 0.0228
vn 0.0000 0.2265 0.9740
vn -0.9984 0.0565 0.0075
vn 0.0000 0.9593 -0.2825
vn -0.9972 0.0736 -0.0095
vn 0.9881 -0.1535 -0.0119
vn 0.1652 0.0000 -0.9863
vn 0.3747 0.9271 0.0000
vn 0.0245 0.0163 0.9996
vn -0.3054 -0.9513 -0.0413
vn -0.1989 -0.9778 0.0658
vn 0.0496 -0.9956 0.0798
vn 0.0720 0.0902 0.9933
vn 0.3728 0.9275 -0.0274
vn 0.9981 -0.0155 -0.0592
vn -0.4253 0.9047 0.0252
vn -0.1441 -0.9895 0.0072
vn -0.0245 -0.0163 -0.9996
vn 0.9264 -0.3738 -0.0461
vn -0.9987 0.0113 0.0497
vn 0.0000 -0.9593 0.2825
vn 0.0001 -0.9739 -0.2268
vn -0.0012 -0.0016 1.0000
vn -0.0001 0.9739 0.2268
vn -0.0816 -0.9967 0.0000
vn -0.0791 -0.9651 0.2495
vn 1.0000 0.0067 0.0000
vn -0.9991 0.0421 0.0000
vn 0.9999 0.0144 -0.0019
vn 0.0000 -0.9988 -0.0486
vn 0.0000 0.0425 0.9991
vn 0.0000 -0.2074 -0.9783
vn 0.9984 -0.0565 -0.0075
usemtl None
s off
f 18//1 4//1 12//1 22//1
f 89//2 88//2 78//2 79//2
f 5//3 19//3 68//3 71//3
f 6//1 2//1 52//1 53//1
f 17//3 19//3 5//3 1//3
f 20//1 18//1 2//1 6//1
f 12//4 9//4 13//4 16//4
f 17//3 1//3 10//3 21//3
f 16//5 13//5 83//5 82//5
f 11//6 15//6 42//6 40//6
f 139//7 138//7 26//7 25//7
f 2//1 11//1 40//1 38//1
f 22//8 12//8 16//8 24//8
f 21//9 10//9 14//9 23//9
f 9//10 21//10 23//10 13//10
f 11//11 22//11 24//11 15//11
f 15//1 24//1 32//1 31//1
f 3//3 17//3 21//3 9//3
f 8//1 4//1 18//1 20//1
f 3//3 7//3 19//3 17//3
f 67//12 7//12 111//12 113//12
f 2//1 18//1 22//1 11//1
f 28//13 25//13 26//13 27//13
f 140//14 139//14 25//14 28//14
f 87//1 86//1 76//1 80//1
f 141//15 140//15 28//15 27//15
f 30//16 31//16 32//16 29//16
f 23//3 14//3 30//3 29//3
f 24//4 23//4 29//4 32//4
f 15//1 31//1 36//1 34//1
f 33//17 34//17 36//17 35//17
f 31//16 30//16 35//16 36//16
f 30//3 14//3 33//3 35//3
f 48//18 47//18 45//18 46//18
f 37//17 38//17 40//17 39//17
f 39//17 40//17 42//17 41//17
f 1//19 37//19 58//19 55//19
f 14//20 10//20 39//20 41//20
f 1//19 2//19 38//19 37//19
f 15//21 14//21 41//21 42//21
f 43//22 44//22 46//22 45//22
f 47//3 49//3 43//3 45//3
f 49//4 50//4 44//4 43//4
f 50//1 48//1 46//1 44//1
f 15//1 34//1 48//1 50//1
f 14//23 15//23 50//23 49//23
f 33//3 14//3 49//3 47//3
f 34//17 33//17 47//17 48//17
f 52//24 51//24 62//24 63//24
f 53//1 64//1 74//1 72//1
f 2//24 1//24 51//24 52//24
f 51//24 1//24 55//24 60//24
f 57//3 55//3 58//3 59//3
f 55//3 56//3 61//3 60//3
f 10//4 1//4 55//4 57//4
f 37//17 39//17 59//17 58//17
f 5//25 54//25 61//25 56//25
f 39//24 10//24 57//24 59//24
f 54//26 51//26 60//26 61//26
f 1//27 5//27 56//27 55//27
f 65//28 64//28 63//28 62//28
f 53//1 52//1 63//1 64//1
f 6//1 53//1 72//1 70//1
f 51//3 54//3 65//3 62//3
f 68//19 69//19 70//19 71//19
f 67//29 66//29 69//29 68//29
f 71//19 70//19 72//19 73//19
f 73//19 72//19 74//19 75//19
f 54//3 5//3 71//3 73//3
f 65//3 54//3 73//3 75//3
f 19//30 7//30 67//30 68//30
f 8//1 20//1 69//1 66//1
f 64//31 65//31 75//31 74//31
f 20//1 6//1 70//1 69//1
f 77//4 76//4 79//4 78//4
f 76//4 77//4 81//4 80//4
f 142//4 143//4 85//4 84//4
f 27//32 85//32 153//32 151//32
f 138//33 16//33 82//33 142//33
f 100//17 99//17 96//17 95//17
f 27//24 26//24 84//24 85//24
f 12//34 87//34 148//34 144//34
f 86//1 89//1 79//1 76//1
f 99//17 98//17 97//17 96//17
f 3//3 9//3 91//3 90//3
f 4//1 8//1 89//1 86//1
f 9//17 12//17 144//17 145//17
f 7//3 3//3 90//3 88//3
f 12//1 4//1 86//1 87//1
f 8//35 7//35 88//35 89//35
f 95//3 96//3 93//3 92//3
f 96//3 97//3 94//3 93//3
f 101//19 100//19 95//19 92//19
f 97//17 98//17 132//17 133//17
f 102//1 107//1 137//1 135//1
f 93//3 94//3 106//3 105//3
f 81//4 77//4 103//4 102//4
f 77//4 78//4 101//4 103//4
f 91//24 81//24 102//24 98//24
f 78//19 88//19 100//19 101//19
f 90//17 91//17 98//17 99//17
f 88//17 90//17 99//17 100//17
f 109//36 108//36 104//36 105//36
f 107//4 109//4 105//4 106//4
f 103//1 101//1 108//1 109//1
f 101//19 92//19 104//19 108//19
f 92//3 93//3 105//3 104//3
f 102//1 103//1 109//1 107//1
f 112//37 116//37 122//37 120//37
f 8//1 66//1 112//1 110//1
f 7//24 8//24 110//24 111//24
f 112//37 66//37 114//37 116//37
f 114//19 115//19 117//19 116//19
f 127//38 125//38 130//38 131//38
f 67//39 113//39 117//39 115//39
f 117//40 113//40 121//40 123//40
f 119//4 118//4 120//4 121//4
f 121//4 120//4 122//4 123//4
f 110//1 112//1 120//1 118//1
f 111//24 110//24 118//24 119//24
f 116//19 117//19 123//19 122//19
f 113//41 111//41 119//41 121//41
f 124//42 125//42 127//42 126//42
f 114//43 66//43 124//43 126//43
f 115//44 114//44 126//44 127//44
f 66//45 67//45 125//45 124//45
f 128//46 129//46 131//46 130//46
f 67//47 115//47 129//47 128//47
f 115//48 127//48 131//48 129//48
f 125//49 67//49 128//49 130//49
f 132//24 135//24 134//24 133//24
f 134//24 135//24 137//24 136//24
f 106//3 94//3 134//3 136//3
f 107//4 106//4 136//4 137//4
f 94//3 97//3 133//3 134//3
f 98//1 102//1 135//1 132//1
f 26//33 138//33 142//33 84//33
f 13//50 141//50 143//50 83//50
f 82//4 83//4 143//4 142//4
f 13//51 23//51 140//51 141//51
f 23//52 24//52 139//52 140//52
f 24//53 16//53 138//53 139//53
f 149//54 148//54 146//54 147//54
f 145//55 144//55 148//55 149//55
f 81//56 91//56 149//56 147//56
f 87//57 80//57 146//57 148//57
f 91//58 9//58 145//58 149//58
f 80//4 81//4 147//4 146//4
f 150//59 151//59 153//59 152//59
f 141//60 27//60 151//60 150//60
f 85//61 143//61 152//61 153//61
f 143//62 141//62 150//62 152//62
