# Blender v2.79 (sub 0) OBJ File: 'Room layout1.blend'
# www.blender.org
mtllib Room layout-6-roof.mtl
o center_room.003_Cube.711
v 1.408127 1.281478 -1.408127
v 1.408127 1.281478 1.408127
v -1.408128 1.281478 1.408127
v -1.408127 1.281478 -1.408128
v 1.408128 1.364479 -1.408127
v 1.408127 1.364479 1.408128
v -1.408128 1.364479 1.408127
v -1.408127 1.364479 -1.408127
v 2.789736 1.110789 -1.405357
v 2.789736 1.392510 -1.405357
v 2.789736 1.110789 -1.490992
v 2.789736 1.392510 -1.490992
v 1.403831 1.110789 -1.405357
v 1.403831 1.392510 -1.405357
v 1.403831 1.110789 -1.490992
v 1.403831 1.392510 -1.490992
v 3.783791 1.110788 -0.742555
v 3.783791 1.110788 -0.656920
v 3.783791 1.392510 -0.656920
v 3.783791 1.392510 -0.742555
v 1.476411 1.110789 -1.490992
v 1.476411 1.392510 -1.490992
v 1.476411 1.110789 -1.405357
v 1.476411 1.392510 -1.405357
v 1.476411 1.392510 -2.245897
v 1.403831 1.392510 -2.245897
v 1.403831 1.110789 -2.245897
v 1.476411 1.110789 -2.245897
v 1.476411 1.392510 -2.307066
v 1.403831 1.392510 -2.307066
v 1.403831 1.110789 -2.307066
v 1.476411 1.110789 -2.307066
v -1.408434 1.392510 -2.245897
v -1.408434 1.110789 -2.245897
v -1.408434 1.392510 -2.307066
v -1.408434 1.110789 -2.307066
v -1.500579 1.392510 -2.245897
v -1.500579 1.110789 -2.245897
v -1.500579 1.392510 -2.307066
v -1.500579 1.110789 -2.307066
v -1.408434 1.392510 -1.437544
v -1.408434 1.110789 -1.437544
v -1.500579 1.392510 -1.437544
v -1.500579 1.110789 -1.437544
v -1.408434 1.110789 -1.493366
v -1.408434 1.392510 -1.493366
v -1.500579 1.110789 -1.493366
v -1.500579 1.392510 -1.493366
v -2.251105 1.392510 -1.437544
v -2.251105 1.110789 -1.437544
v -2.179251 1.110789 -1.493366
v -2.179251 1.392510 -1.493366
v -2.118993 1.110789 -1.493366
v -2.190847 1.110789 -1.437544
v -2.118993 1.392510 -1.493366
v -2.190847 1.392510 -1.437544
v -2.251105 1.392510 1.416664
v -2.251105 1.110788 1.416664
v -2.190847 1.392510 1.416664
v -2.190847 1.110788 1.416664
v -2.251105 1.392510 1.475870
v -2.251105 1.110788 1.475870
v -2.190847 1.392510 1.475870
v -2.190847 1.110788 1.475870
v -1.485986 1.110788 1.416664
v -1.485986 1.392510 1.416664
v -1.485986 1.110788 1.475870
v -1.485986 1.392510 1.475870
v -1.407701 1.110788 1.416664
v -1.407701 1.392510 1.416664
v -1.407701 1.110788 1.475870
v -1.407701 1.392510 1.475870
v -1.485986 1.110788 2.246262
v -1.485986 1.392510 2.246262
v -1.407701 1.110788 2.246262
v -1.407701 1.392510 2.246262
v -1.485986 1.110788 2.296679
v -1.485986 1.392510 2.296679
v -1.407701 1.110788 2.296679
v -1.407701 1.392510 2.296679
v 0.002522 1.110788 2.246262
v 0.002522 1.392510 2.246262
v 0.002522 1.110788 2.296679
v 0.002522 1.392510 2.296679
v -1.414590 1.281478 1.407949
v 1.408719 1.281478 1.407949
v 1.408718 1.281478 2.245929
v -1.414591 1.281478 2.245929
v -1.414590 1.364479 1.407948
v 1.408720 1.364479 1.407949
v 1.408718 1.364479 2.245929
v -1.414590 1.364479 2.245929
v -1.414590 1.281478 -2.245720
v 1.408719 1.281478 -2.245720
v 1.408718 1.281478 -1.407739
v -1.414591 1.281478 -1.407740
v -1.414590 1.364479 -2.245720
v 1.408720 1.364479 -2.245719
v 1.408718 1.364479 -1.407739
v -1.414590 1.364479 -1.407739
v 1.410152 1.281478 1.424809
v 1.410152 1.281478 -1.398500
v 2.248133 1.281478 -1.398500
v 2.248132 1.281478 1.424809
v 1.410152 1.364479 1.424808
v 1.410153 1.364479 -1.398501
v 2.248133 1.364479 -1.398500
v 2.248133 1.364479 1.424809
v -2.245153 1.281478 1.407987
v -2.245154 1.281478 -1.415322
v -1.407173 1.281478 -1.415321
v -1.407173 1.281478 1.407988
v -2.245154 1.364479 1.407987
v -2.245153 1.364479 -1.415322
v -1.407172 1.364479 -1.415321
v -1.407173 1.364479 1.407987
v -3.341526 1.098610 1.396260
v -3.341526 1.098610 4.199575
v -2.798881 1.098610 4.199574
v -2.798881 1.098610 1.396259
v -3.341527 1.015609 1.396260
v -3.341526 1.015609 4.199575
v -2.798880 1.015609 4.199574
v -2.798881 1.015609 1.396260
v -3.341527 1.015609 1.968999
v -3.341526 1.098610 1.968999
v -4.123020 1.098610 1.958390
v -3.602841 1.098610 4.199575
v -3.602840 1.015609 4.199575
v -4.123020 1.015610 1.958390
v -2.236470 1.015609 0.021657
v -2.236470 1.015609 1.414021
v -4.778816 1.015609 1.414020
v -4.778815 1.015609 0.021656
v -2.236470 1.098610 0.021657
v -2.236471 1.098610 1.414021
v -4.778816 1.098610 1.414020
v -4.778815 1.098610 0.021657
v -1.407807 1.015609 2.243285
v 0.002819 1.015609 2.243285
v 0.002819 1.015609 3.771356
v -1.407807 1.015609 3.771355
v -1.407806 1.098610 2.243285
v 0.002819 1.098610 2.243286
v 0.002818 1.098610 3.771356
v -1.407807 1.098610 3.771356
v 0.003486 1.281478 2.245111
v 1.417003 1.281478 2.245111
v 1.417003 1.281478 4.787456
v 0.003486 1.281478 4.787456
v 0.003486 1.364479 2.245110
v 1.417004 1.364479 2.245112
v 1.417003 1.364479 4.787457
v 0.003486 1.364479 4.787456
v -3.645271 1.015609 -2.115662
v -1.413134 1.015609 -2.115662
v -1.413134 1.015609 -1.396816
v -3.645272 1.015609 -1.396816
v -3.645271 1.098610 -2.115663
v -1.413133 1.098610 -2.115661
v -1.413135 1.098610 -1.396815
v -3.645271 1.098610 -1.396816
v -2.925290 1.098610 -2.115662
v -2.925290 1.015609 -2.115662
v -2.925290 1.015609 -3.105552
v -1.413134 1.015609 -3.105552
v -3.645271 1.015609 -2.115662
v -3.645271 1.098610 -2.115663
v -1.413133 1.098610 -3.105551
v -2.925290 1.098610 -3.105552
v -1.418527 1.015609 -4.395114
v -1.418527 1.015609 -3.104979
v -3.644901 1.015609 -2.112875
v -3.644900 1.015609 -4.395115
v -1.418526 1.098610 -4.395114
v -1.418528 1.098610 -3.104978
v -3.644901 1.098610 -2.112875
v -3.644900 1.098610 -4.395114
v -2.920846 1.015609 -4.395115
v -2.920847 1.015609 -3.104979
v -2.920846 1.098610 -4.395114
v -2.920847 1.098610 -3.104978
v 3.636617 1.364479 4.402911
v 3.636617 1.364479 3.112774
v 1.410244 1.364479 2.120671
v 1.410245 1.364479 4.402911
v 3.636618 1.281478 4.402910
v 3.636617 1.281478 3.112774
v 1.410244 1.281478 2.120671
v 1.410244 1.281478 4.402911
v 2.134298 1.364479 4.402911
v 2.134297 1.364479 3.112775
v 2.134298 1.281478 4.402910
v 2.134297 1.281478 3.112774
v 1.408242 1.364479 2.120721
v 3.640380 1.364479 2.120721
v 3.640379 1.364479 1.401874
v 1.408242 1.364479 1.401875
v 1.408243 1.281478 2.120721
v 3.640381 1.281478 2.120720
v 3.640379 1.281478 1.401874
v 1.408242 1.281478 1.401874
v 2.128224 1.281478 2.120721
v 2.128224 1.364479 2.120721
v 2.128224 1.364479 3.110610
v 3.640380 1.364479 3.110611
v 1.408242 1.364479 2.120721
v 1.408243 1.281478 2.120721
v 3.640381 1.281478 3.110610
v 2.128224 1.281478 3.110611
v -2.801633 1.015612 3.957232
v -2.229414 1.015612 3.621616
v -2.002414 1.015612 5.699474
v -2.787746 1.015612 5.142901
v -2.801633 1.098610 3.957232
v -2.229413 1.098610 3.621617
v -2.002414 1.098610 5.699474
v -2.787745 1.098610 5.142901
v -1.402436 1.015609 3.119931
v -1.390748 1.015609 5.680863
v -1.402436 1.098607 3.119931
v -1.390748 1.098607 5.680863
v 2.791866 1.285412 -1.393446
v 2.791866 1.285412 1.409869
v 2.249220 1.285412 1.409868
v 2.249220 1.285412 -1.393447
v 2.791866 1.368412 -1.393446
v 2.791865 1.368412 1.409869
v 2.249220 1.368412 1.409868
v 2.249220 1.368412 -1.393446
v 2.791866 1.368412 -0.820707
v 2.791866 1.285412 -0.820707
v 3.573359 1.285412 -0.831316
v 2.805336 1.285412 1.409869
v 2.805336 1.368412 1.409869
v 3.573359 1.368412 -0.831316
v 0.559931 1.015609 -4.077326
v 0.559931 1.015609 -2.244236
v -0.030405 1.015609 -2.244237
v -0.030404 1.015609 -4.077327
v 0.559931 1.098610 -4.077326
v 0.559930 1.098610 -2.244236
v -0.030405 1.098610 -2.244237
v -0.030405 1.098610 -4.077326
v 0.559931 1.098610 -3.486059
v 0.559931 1.015609 -3.486059
v 1.402052 1.015609 -3.486059
v 1.402052 1.015609 -2.244236
v 0.559931 1.015609 -4.077326
v 0.559931 1.098610 -4.077326
v 1.402051 1.098610 -2.244236
v 1.402052 1.098610 -3.486059
v -2.791446 1.016527 1.405416
v -1.399082 1.016527 1.405416
v -1.399082 1.023903 3.117205
v -2.791446 1.016527 3.947761
v -2.791445 1.092153 1.405416
v -1.399081 1.097484 1.405417
v -1.399082 1.099528 3.117206
v -2.791445 1.092153 3.947761
v 2.792436 1.015609 -5.113341
v 4.184800 1.015609 -5.113342
v 4.184800 1.015609 -3.401552
v 2.792436 1.015609 -2.570997
v 2.792436 1.098610 -5.113342
v 4.184801 1.098610 -5.113341
v 4.184800 1.098610 -3.401552
v 2.792436 1.098610 -2.570996
v -2.232894 1.349171 -1.373923
v -2.232894 1.059084 0.022442
v -3.760964 1.059084 0.022442
v -3.760964 1.349171 -1.373924
v -2.232893 1.430437 -1.357040
v -2.232895 1.140349 0.039325
v -3.760965 1.140349 0.039324
v -3.760964 1.430437 -1.357041
v 2.801731 1.015610 -2.575892
v 3.356141 1.015610 -2.905036
v 3.558788 1.015610 -0.824663
v 2.801731 1.015610 -1.390142
v 2.801732 1.098611 -2.575892
v 3.356142 1.098611 -2.905035
v 3.558788 1.098611 -0.824663
v 2.801732 1.098611 -1.390141
v 4.188937 1.015607 -3.397002
v 4.170631 1.015607 -0.836109
v 4.188938 1.098608 -3.397001
v 4.170630 1.098608 -0.836109
v -1.417139 1.015609 -4.401504
v -0.024775 1.015609 -4.401504
v -0.024775 1.015609 -2.239603
v -1.417139 1.015609 -2.239603
v -1.417139 1.098610 -4.401505
v -0.024774 1.098610 -4.401503
v -0.024775 1.098610 -2.239602
v -1.417139 1.098610 -2.239603
v 1.403310 1.015609 -3.945862
v 2.795674 1.015609 -3.945862
v 2.795674 1.015609 -1.403517
v 1.403310 1.015609 -1.403517
v 1.403311 1.098610 -3.945863
v 2.795675 1.098610 -3.945861
v 2.795674 1.098610 -1.403516
v 1.403311 1.098610 -1.403517
vn 0.0000 -1.0000 0.0000
vn 0.0000 1.0000 -0.0000
vn 1.0000 0.0000 0.0000
vn -0.0000 -0.0000 1.0000
vn -1.0000 -0.0000 -0.0000
vn 0.0000 0.0000 -1.0000
vn -0.6015 0.0000 0.7989
vn 0.6015 0.0000 -0.7989
vn 0.6135 0.0000 0.7897
vn -0.9741 0.0000 0.2261
vn -0.5839 0.0000 -0.8118
vn -0.8087 0.0000 -0.5882
vn 0.8078 0.0000 0.5895
vn 0.8078 -0.0000 -0.5895
vn -0.8087 0.0000 0.5882
vn -0.5059 0.0000 -0.8626
vn -0.5782 -0.0000 0.8159
vn -0.9999 0.0000 0.0117
vn 1.0000 -0.0000 -0.0046
vn 0.0304 0.0000 0.9995
vn -0.5187 0.0000 -0.8550
vn 0.9460 -0.0000 0.3242
vn 0.5839 -0.0000 -0.8118
vn 0.5746 -0.0000 -0.8184
vn 0.0032 -1.0000 0.0017
vn -0.0047 1.0000 -0.0005
vn 0.5123 -0.0000 0.8588
vn 0.0000 -0.9791 -0.2034
vn -0.0000 0.9791 0.2034
vn -0.0000 -0.2034 0.9791
vn 0.0000 0.2034 -0.9791
vn -0.5105 0.0000 -0.8599
vn -0.5984 -0.0000 0.8012
vn 1.0000 -0.0000 0.0071
vn 0.0187 -0.0000 0.9998
vn -0.5086 0.0000 -0.8610
usemtl Material.177
s off
f 1//1 2//1 3//1 4//1
f 5//2 8//2 7//2 6//2
f 1//3 5//3 6//3 2//3
f 2//4 6//4 7//4 3//4
f 3//5 7//5 8//5 4//5
f 5//6 1//6 4//6 8//6
f 11//2 9//2 18//2 17//2
f 15//2 21//2 28//2 27//2
f 15//3 16//3 14//3 13//3
f 23//6 24//6 10//6 9//6
f 21//2 15//2 13//2 23//2
f 22//1 12//1 10//1 24//1
f 18//5 19//5 20//5 17//5
f 12//7 11//7 17//7 20//7
f 9//8 10//8 19//8 18//8
f 10//1 12//1 20//1 19//1
f 16//1 22//1 24//1 14//1
f 11//2 21//2 23//2 9//2
f 13//6 14//6 24//6 23//6
f 11//4 12//4 22//4 21//4
f 28//5 25//5 29//5 32//5
f 22//1 16//1 26//1 25//1
f 21//5 22//5 25//5 28//5
f 16//3 15//3 27//3 26//3
f 32//4 29//4 30//4 31//4
f 27//2 31//2 36//2 34//2
f 27//2 28//2 32//2 31//2
f 25//1 26//1 30//1 29//1
f 46//5 45//5 42//5 41//5
f 26//6 27//6 34//6 33//6
f 30//1 26//1 33//1 35//1
f 31//4 30//4 35//4 36//4
f 37//3 38//3 40//3 39//3
f 35//1 33//1 37//1 39//1
f 36//4 35//4 39//4 40//4
f 34//2 36//2 40//2 38//2
f 41//6 42//6 44//6 43//6
f 45//2 47//2 44//2 42//2
f 54//2 53//2 51//2 50//2
f 48//1 46//1 41//1 43//1
f 37//1 33//1 46//1 48//1
f 38//3 37//3 48//3 47//3
f 34//2 38//2 47//2 45//2
f 33//5 34//5 45//5 46//5
f 51//9 52//9 49//9 50//9
f 53//4 55//4 52//4 51//4
f 55//1 56//1 49//1 52//1
f 56//5 54//5 60//5 59//5
f 43//6 44//6 54//6 56//6
f 48//1 43//1 56//1 55//1
f 47//4 48//4 55//4 53//4
f 44//2 47//2 53//2 54//2
f 58//3 57//3 61//3 62//3
f 50//3 49//3 57//3 58//3
f 54//2 50//2 58//2 60//2
f 49//1 56//1 59//1 57//1
f 63//6 64//6 62//6 61//6
f 64//6 63//6 68//6 67//6
f 57//1 59//1 63//1 61//1
f 60//2 58//2 62//2 64//2
f 65//2 67//2 71//2 69//2
f 59//4 60//4 65//4 66//4
f 60//2 64//2 67//2 65//2
f 63//1 59//1 66//1 68//1
f 70//5 69//5 71//5 72//5
f 66//4 65//4 69//4 70//4
f 68//1 66//1 70//1 72//1
f 68//1 72//1 76//1 74//1
f 76//4 75//4 81//4 82//4
f 72//5 71//5 75//5 76//5
f 67//3 68//3 74//3 73//3
f 71//2 67//2 73//2 75//2
f 77//6 78//6 80//6 79//6
f 75//2 73//2 77//2 79//2
f 73//3 74//3 78//3 77//3
f 74//1 76//1 80//1 78//1
f 82//5 81//5 83//5 84//5
f 75//2 79//2 83//2 81//2
f 80//1 76//1 82//1 84//1
f 79//6 80//6 84//6 83//6
usemtl Material.176
f 85//1 86//1 87//1 88//1
f 89//2 92//2 91//2 90//2
f 85//6 89//6 90//6 86//6
f 86//3 90//3 91//3 87//3
f 87//4 91//4 92//4 88//4
f 89//5 85//5 88//5 92//5
usemtl Material.175
f 93//1 94//1 95//1 96//1
f 97//2 100//2 99//2 98//2
f 93//6 97//6 98//6 94//6
f 94//3 98//3 99//3 95//3
f 95//4 99//4 100//4 96//4
f 97//5 93//5 96//5 100//5
usemtl Material.174
f 101//1 102//1 103//1 104//1
f 105//2 108//2 107//2 106//2
f 101//5 105//5 106//5 102//5
f 102//6 106//6 107//6 103//6
f 103//3 107//3 108//3 104//3
f 105//4 101//4 104//4 108//4
usemtl Material.173
f 109//1 110//1 111//1 112//1
f 113//2 116//2 115//2 114//2
f 109//5 113//5 114//5 110//5
f 110//6 114//6 115//6 111//6
f 111//3 115//3 116//3 112//3
f 113//4 109//4 112//4 116//4
usemtl Material.172
f 117//2 126//2 118//2 119//2 120//2
f 121//1 124//1 123//1 122//1 125//1
f 122//4 118//4 128//4 129//4
f 119//3 123//3 124//3 120//3
f 121//6 117//6 120//6 124//6
f 121//1 125//1 130//1
f 127//10 130//10 129//10 128//10
f 118//2 126//2 127//2 128//2
f 126//2 117//2 127//2
f 125//1 122//1 129//1 130//1
f 123//4 119//4 118//4 122//4
f 117//11 121//11 130//11 127//11
usemtl Material.171
f 131//1 132//1 133//1 134//1
f 135//2 138//2 137//2 136//2
f 131//3 135//3 136//3 132//3
f 132//4 136//4 137//4 133//4
f 133//5 137//5 138//5 134//5
f 135//6 131//6 134//6 138//6
usemtl Material.170
f 139//1 140//1 141//1 142//1
f 143//2 146//2 145//2 144//2
f 139//6 143//6 144//6 140//6
f 140//3 144//3 145//3 141//3
f 141//4 145//4 146//4 142//4
f 143//5 139//5 142//5 146//5
usemtl Material.169
f 147//1 148//1 149//1 150//1
f 151//2 154//2 153//2 152//2
f 147//6 151//6 152//6 148//6
f 148//3 152//3 153//3 149//3
f 149//4 153//4 154//4 150//4
f 151//5 147//5 150//5 154//5
usemtl Material.168
f 155//1 164//1 156//1 157//1 158//1
f 159//2 162//2 161//2 160//2 163//2
f 160//3 156//3 166//3 169//3
f 157//4 161//4 162//4 158//4
f 159//5 155//5 158//5 162//5
f 167//12 168//12 170//12 165//12
f 159//2 163//2 170//2 168//2
f 165//6 170//6 169//6 166//6
f 155//4 159//4 168//4 167//4
f 156//1 164//1 165//1 166//1
f 164//1 155//1 167//1 165//1
f 163//2 160//2 169//2 170//2
f 161//3 157//3 156//3 160//3
usemtl Material.167
f 179//1 180//1 173//1 174//1
f 181//2 178//2 177//2 182//2
f 171//3 175//3 176//3 172//3
f 180//13 182//13 177//13 173//13
f 173//5 177//5 178//5 174//5
f 181//6 179//6 174//6 178//6
f 175//6 171//6 179//6 181//6
f 172//4 176//4 182//4 180//4
f 175//2 181//2 182//2 176//2
f 171//1 172//1 180//1 179//1
usemtl Material.166
f 191//2 192//2 185//2 186//2
f 193//1 190//1 189//1 194//1
f 183//3 187//3 188//3 184//3
f 192//14 194//14 189//14 185//14
f 185//5 189//5 190//5 186//5
f 193//4 191//4 186//4 190//4
f 187//4 183//4 191//4 193//4
f 184//6 188//6 194//6 192//6
f 187//1 193//1 194//1 188//1
f 183//2 184//2 192//2 191//2
usemtl Material.165
f 195//2 204//2 196//2 197//2 198//2
f 199//1 202//1 201//1 200//1 203//1
f 200//3 196//3 206//3 209//3
f 197//6 201//6 202//6 198//6
f 199//5 195//5 198//5 202//5
f 207//15 208//15 210//15 205//15
f 199//1 203//1 210//1 208//1
f 205//4 210//4 209//4 206//4
f 195//4 199//4 208//4 207//4
f 196//2 204//2 205//2 206//2
f 204//2 195//2 207//2 205//2
f 203//1 200//1 209//1 210//1
f 201//3 197//3 196//3 200//3
usemtl Material.164
f 211//1 212//1 213//1 214//1
f 215//2 218//2 217//2 216//2
f 211//16 215//16 216//16 212//16
f 213//1 212//1 219//1 220//1
f 213//17 217//17 218//17 214//17
f 215//18 211//18 214//18 218//18
f 219//19 221//19 222//19 220//19
f 216//2 217//2 222//2 221//2
f 217//20 213//20 220//20 222//20
f 212//21 216//21 221//21 219//21
usemtl Material.163
f 223//1 232//1 224//1 225//1 226//1
f 227//2 230//2 229//2 228//2 231//2
f 228//4 224//4 234//4 235//4
f 225//5 229//5 230//5 226//5
f 227//6 223//6 226//6 230//6
f 227//2 231//2 236//2
f 233//22 236//22 235//22 234//22
f 224//1 232//1 233//1 234//1
f 232//1 223//1 233//1
f 231//2 228//2 235//2 236//2
f 229//4 225//4 224//4 228//4
f 223//23 227//23 236//23 233//23
usemtl Material.162
f 237//1 246//1 238//1 239//1 240//1
f 241//2 244//2 243//2 242//2 245//2
f 242//4 238//4 248//4 251//4
f 239//5 243//5 244//5 240//5
f 241//6 237//6 240//6 244//6
f 249//24 250//24 252//24 247//24
f 241//2 245//2 252//2 250//2
f 247//3 252//3 251//3 248//3
f 237//4 241//4 250//4 249//4
f 238//1 246//1 247//1 248//1
f 246//1 237//1 249//1 247//1
f 245//2 242//2 251//2 252//2
f 243//4 239//4 238//4 242//4
usemtl Material.161
f 253//25 254//25 255//25 256//25
f 257//26 260//26 259//26 258//26
f 253//6 257//6 258//6 254//6
f 254//3 258//3 259//3 255//3
f 255//27 259//27 260//27 256//27
f 257//5 253//5 256//5 260//5
usemtl Material.160
f 261//1 262//1 263//1 264//1
f 265//2 268//2 267//2 266//2
f 261//6 265//6 266//6 262//6
f 262//3 266//3 267//3 263//3
f 263//27 267//27 268//27 264//27
f 265//5 261//5 264//5 268//5
usemtl Material.159
f 269//28 270//28 271//28 272//28
f 273//29 276//29 275//29 274//29
f 269//3 273//3 274//3 270//3
f 270//30 274//30 275//30 271//30
f 271//5 275//5 276//5 272//5
f 273//31 269//31 272//31 276//31
usemtl Material.158
f 277//1 278//1 279//1 280//1
f 281//2 284//2 283//2 282//2
f 277//32 281//32 282//32 278//32
f 279//1 278//1 285//1 286//1
f 279//33 283//33 284//33 280//33
f 281//5 277//5 280//5 284//5
f 285//34 287//34 288//34 286//34
f 282//2 283//2 288//2 287//2
f 283//35 279//35 286//35 288//35
f 278//36 282//36 287//36 285//36
usemtl Material.157
f 289//1 290//1 291//1 292//1
f 293//2 296//2 295//2 294//2
f 289//6 293//6 294//6 290//6
f 290//3 294//3 295//3 291//3
f 291//4 295//4 296//4 292//4
f 293//5 289//5 292//5 296//5
usemtl Material.156
f 297//1 298//1 299//1 300//1
f 301//2 304//2 303//2 302//2
f 297//6 301//6 302//6 298//6
f 298//3 302//3 303//3 299//3
f 299//4 303//4 304//4 300//4
f 301//5 297//5 300//5 304//5
