# Blender v2.79 (sub 0) OBJ File: 'modern assets.blend'
# www.blender.org
o Cube.000_Cube.005
v -1.010252 0.007282 0.952908
v -1.010252 0.219379 0.952908
v -1.010252 0.007282 -1.047092
v -1.010252 0.219379 -1.047092
v 0.989748 0.007282 0.952908
v 0.989748 0.219379 0.952908
v 0.989748 0.007282 -1.047092
v 0.989748 0.219379 -1.047092
v 0.389150 0.178850 0.426861
v 0.376790 3.492028 0.360520
v 0.389150 0.178850 0.284070
v 0.443175 3.558291 0.252856
v 0.546243 0.178850 0.426861
v 0.492218 3.534895 0.458075
v 0.546243 0.178850 0.284070
v 0.558603 3.601158 0.350411
v 0.377447 3.315979 0.364045
v 0.440305 3.378722 0.254514
v 0.557946 3.419311 0.346885
v 0.495088 3.356569 0.456417
v -0.476188 5.028461 1.309746
v -0.473320 5.204509 1.307594
v -0.509564 5.247376 1.454314
v -0.506805 5.069050 1.456152
v -0.341343 5.056627 1.225809
v -0.364489 5.099494 1.368284
v -0.361720 4.921169 1.369819
v -0.343906 4.880579 1.228080
v -0.476188 5.028461 0.334923
v -0.473320 5.204509 0.332771
v -0.341343 5.056627 0.250986
v -0.343906 4.880579 0.253256
v -0.341343 5.056627 0.403128
v -0.473320 5.204509 0.484913
v -0.343906 4.880579 0.405398
v -0.476188 5.028461 0.487065
v -0.846322 3.255590 0.334923
v -0.778142 3.107708 0.253256
v -0.778142 3.107708 0.405398
v -0.846322 3.255590 0.487065
v -1.545448 2.933260 0.334923
v -1.477267 2.785378 0.253256
v -1.477267 2.785378 0.405398
v -1.545448 2.933260 0.487065
v -1.406814 2.997177 0.487065
v -1.338633 2.849295 0.405398
v -1.338633 2.849295 0.253256
v -1.406814 2.997177 0.334923
v -0.376964 0.118862 0.405398
v -0.376964 0.118862 0.253256
v -0.238329 0.182780 0.405398
v -0.238329 0.182780 0.253256
v -0.375213 0.178850 -0.362843
v -0.362853 3.492028 -0.296502
v -0.375213 0.178850 -0.220051
v -0.429238 3.558291 -0.188837
v -0.532306 0.178850 -0.362843
v -0.478281 3.534895 -0.394056
v -0.532306 0.178850 -0.220051
v -0.544666 3.601158 -0.286392
v -0.363510 3.315979 -0.300027
v -0.426368 3.378722 -0.190496
v -0.544009 3.419312 -0.282867
v -0.481151 3.356569 -0.392398
v 0.490126 5.028461 -1.245728
v 0.487258 5.204509 -1.243576
v 0.523502 5.247376 -1.390296
v 0.520742 5.069050 -1.392133
v 0.355280 5.056627 -1.161791
v 0.378426 5.099494 -1.304265
v 0.375657 4.921169 -1.305801
v 0.357844 4.880579 -1.164061
v 0.490126 5.028461 -0.270904
v 0.487258 5.204509 -0.268752
v 0.355280 5.056627 -0.186967
v 0.357844 4.880579 -0.189238
v 0.355280 5.056627 -0.339109
v 0.487258 5.204509 -0.420894
v 0.357844 4.880579 -0.341380
v 0.490126 5.028461 -0.423046
v 0.860260 3.255590 -0.270904
v 0.792079 3.107708 -0.189238
v 0.792079 3.107708 -0.341380
v 0.860260 3.255590 -0.423046
v 1.559385 2.933260 -0.270904
v 1.491205 2.785378 -0.189237
v 1.491205 2.785378 -0.341379
v 1.559385 2.933260 -0.423046
v 1.420751 2.997177 -0.423046
v 1.352570 2.849295 -0.341379
v 1.352570 2.849295 -0.189237
v 1.420751 2.997177 -0.270904
v 0.390901 0.118862 -0.341380
v 0.390901 0.118862 -0.189238
v 0.252267 0.182780 -0.341380
v 0.252267 0.182780 -0.189238
vt 0.443070 0.681179
vt 0.442816 0.668479
vt 0.577006 0.668479
vt 0.577260 0.681179
vt 0.575586 0.681179
vt 0.575582 0.694045
vt 0.442816 0.694045
vt 0.442819 0.681179
vt 0.576927 0.694045
vt 0.576873 0.706904
vt 0.442816 0.706904
vt 0.442869 0.694045
vt 0.442455 0.664503
vt 0.442454 0.651638
vt 0.574219 0.651638
vt 0.574219 0.664503
vt 0.579535 0.833997
vt 0.444509 0.833997
vt 0.444509 0.712680
vt 0.579535 0.712680
vt 0.444911 0.961261
vt 0.444911 0.839944
vt 0.579938 0.839944
vt 0.579938 0.961261
vt 0.878939 0.367709
vt 0.875008 0.388145
vt 0.861341 0.394268
vt 0.865200 0.373319
vt 0.867354 0.607362
vt 0.867691 0.585754
vt 0.878040 0.580576
vt 0.878040 0.602458
vt 0.777061 0.223660
vt 0.773170 0.202214
vt 0.786879 0.207199
vt 0.790835 0.228181
vt 0.899983 0.980736
vt 0.908197 0.965968
vt 0.913168 0.983813
vt 0.905722 1.000000
vt 0.279598 0.590920
vt 0.279598 0.609824
vt 0.264160 0.609824
vt 0.264160 0.590920
vt 0.896830 0.815425
vt 0.913168 0.815675
vt 0.910951 0.830693
vt 0.894613 0.830444
vt 0.983535 0.576226
vt 0.948980 0.195752
vt 0.963978 0.198748
vt 1.000000 0.574121
vt 0.846389 0.605827
vt 0.861341 0.602075
vt 0.861341 0.992402
vt 0.878040 0.992397
vt 0.948980 0.003545
vt 0.933972 0.000000
vt 0.000273 0.633240
vt 0.000000 0.612112
vt 0.016296 0.616415
vt 0.016464 0.637381
vt 0.812431 0.870517
vt 0.813872 0.853403
vt 0.829255 0.842468
vt 0.826446 0.860193
vt 0.739545 0.879033
vt 0.750089 0.861745
vt 0.766419 0.861745
vt 0.755876 0.879033
vt 0.547796 0.630711
vt 0.535736 0.613966
vt 0.535740 0.590840
vt 0.547796 0.607590
vt 0.857048 0.000000
vt 0.861341 0.020898
vt 0.948979 0.560057
vt 0.945132 0.580576
vt 0.998040 0.000000
vt 1.000000 0.004661
vt 0.134378 0.018161
vt 0.133667 0.039333
vt 0.118330 0.021171
vt 0.119071 0.000000
vt 0.749883 0.840562
vt 0.766214 0.840562
vt 0.104855 0.636886
vt 0.104687 0.615920
vt 0.121034 0.615829
vt 0.121201 0.636795
vt 0.744992 0.625696
vt 0.761322 0.625696
vt 0.829255 0.959138
vt 0.815239 0.969462
vt 0.661784 0.861745
vt 0.661578 0.840562
vt 0.651240 0.879033
vt 0.541505 0.330947
vt 0.536592 0.348863
vt 0.521818 0.341529
vt 0.526731 0.323613
vt 0.083549 0.251569
vt 0.075025 0.233562
vt 0.121201 0.854505
vt 0.104855 0.854597
vt 0.651240 0.572760
vt 0.639566 0.590840
vt 0.596323 0.378511
vt 0.601236 0.360595
vt 0.389753 0.888848
vt 0.398116 0.906115
vt 0.381851 0.904304
vt 0.373487 0.887037
vt 0.636466 0.000000
vt 0.651240 0.007333
vt 0.134378 0.920130
vt 0.150826 0.920130
vt 0.150826 0.936812
vt 0.134378 0.936812
vt 0.014877 0.263296
vt 0.023401 0.281302
vt 0.008524 0.288657
vt 0.000000 0.270650
vt 0.134378 0.852686
vt 0.150826 0.852686
vt 0.150826 0.852686
vt 0.167275 0.852686
vt 0.167275 0.920130
vt 0.150826 0.920130
vt 0.338535 0.590920
vt 0.338535 0.609228
vt 0.323547 0.609228
vt 0.323547 0.590920
vt 0.933851 0.897586
vt 0.917544 0.898563
vt 0.917544 0.581552
vt 0.933851 0.580576
vt 0.381851 0.590920
vt 0.398116 0.592732
vt 0.134378 0.604757
vt 0.119500 0.612112
vt 0.757547 0.249670
vt 0.760050 0.228672
vt 0.773170 0.222501
vt 0.770780 0.243925
vt 0.880054 0.607470
vt 0.880167 0.585861
vt 0.894613 0.580576
vt 0.894613 0.602458
vt 0.438594 0.261247
vt 0.434768 0.240084
vt 0.448177 0.243791
vt 0.452090 0.264577
vt 0.514979 0.022310
vt 0.500774 0.031160
vt 0.507059 0.009232
vt 0.521818 0.000000
vt 0.279598 0.609824
vt 0.279598 0.590920
vt 0.295036 0.590920
vt 0.295036 0.609824
vt 0.308559 0.593182
vt 0.308559 0.611368
vt 0.295036 0.609106
vt 0.295036 0.590920
vt 0.373487 0.590920
vt 0.373487 0.973354
vt 0.362726 0.968698
vt 0.356790 0.591251
vt 0.506781 0.638375
vt 0.521818 0.634988
vt 0.878040 0.992542
vt 0.894613 0.992400
vt 0.712950 0.623846
vt 0.728187 0.625696
vt 0.651240 0.021303
vt 0.653564 0.000000
vt 0.669152 0.007217
vt 0.666752 0.028214
vt 0.675323 0.047649
vt 0.660469 0.040867
vt 0.420423 0.028749
vt 0.414138 0.050677
vt 0.398116 0.054286
vt 0.404401 0.032358
vt 0.521823 0.590840
vt 0.535736 0.605699
vt 0.535736 0.631761
vt 0.521818 0.616908
vt 0.519229 0.043019
vt 0.677732 0.026652
vt 0.749651 0.244247
vt 0.439838 0.248599
vt 0.264160 0.018071
vt 0.263549 0.039245
vt 0.251856 0.021174
vt 0.252502 0.000000
vt 0.418457 0.070989
vt 0.402435 0.074599
vt 0.754536 0.038876
vt 0.756936 0.017879
vt 0.773170 0.019851
vt 0.770770 0.040848
vt 0.462887 0.267316
vt 0.446865 0.270925
vt 0.763107 0.058311
vt 0.505093 0.051472
vt 0.287548 0.331019
vt 0.279047 0.349016
vt 0.264160 0.341693
vt 0.272662 0.323696
vt 0.213774 0.251471
vt 0.208843 0.233556
vt 0.744654 0.250763
vt 0.728420 0.248791
vt 0.398116 0.572754
vt 0.382803 0.590920
vt 0.339231 0.378620
vt 0.347733 0.360624
vt 0.642871 0.917233
vt 0.651240 0.936013
vt 0.634954 0.934676
vt 0.626585 0.915896
vt 0.383230 0.000000
vt 0.398116 0.007323
vt 0.789511 0.912303
vt 0.805960 0.912303
vt 0.805960 0.928985
vt 0.789511 0.928985
vt 0.149144 0.263277
vt 0.154075 0.281192
vt 0.139309 0.288544
vt 0.134378 0.270628
vt 0.789511 0.844859
vt 0.805960 0.844859
vt 0.167275 0.852686
vt 0.183723 0.852686
vt 0.183723 0.920130
vt 0.167275 0.920130
vt 0.323547 0.590920
vt 0.323547 0.609228
vt 0.308559 0.609228
vt 0.308559 0.590920
vt 0.789511 0.943847
vt 0.773170 0.944322
vt 0.773170 0.606302
vt 0.789511 0.605827
vt 0.634954 0.590840
vt 0.651240 0.592177
vt 0.264160 0.604672
vt 0.249394 0.612024
vn -1.0000 0.0000 0.0000
vn 0.0000 0.0000 -1.0000
vn 1.0000 0.0000 0.0000
vn 0.0000 0.0000 1.0000
vn 0.0000 -1.0000 0.0000
vn 0.0000 1.0000 0.0000
vn -0.8588 -0.0021 -0.5123
vn 0.6322 -0.0022 -0.7748
vn 0.8599 -0.0021 0.5105
vn 0.7107 0.7008 -0.0618
vn -0.4939 0.8427 0.2141
vn -0.3189 0.0018 0.9478
vn 0.9702 0.0025 0.2423
vn 0.3185 0.0018 -0.9479
vn -0.9705 0.0025 -0.2411
vn -0.9751 -0.0022 -0.2218
vn -0.7038 -0.7058 0.0806
vn 0.7461 0.6658 0.0000
vn 0.5228 0.0162 0.8523
vn 0.7384 0.0114 0.6742
vn -0.7741 -0.0062 -0.6331
vn -0.6422 -0.5970 0.4808
vn 0.6566 0.5941 -0.4646
vn -0.5281 -0.0025 -0.8492
vn 0.9999 -0.0146 0.0000
vn -0.9999 0.0163 0.0000
vn 0.9713 -0.2379 0.0000
vn -0.7453 -0.6667 0.0000
vn 0.1877 -0.4071 0.8939
vn -0.5174 0.1174 -0.8476
vn -0.9789 0.2044 0.0000
vn 0.5174 -0.1174 0.8476
vn -0.9081 -0.4187 0.0000
vn -0.4187 0.9081 0.0000
vn -0.1877 0.4071 -0.8939
vn 0.4187 -0.9081 0.0000
vn 0.9244 0.3814 0.0000
vn -0.9244 -0.3814 0.0000
vn 0.8588 -0.0021 0.5123
vn -0.6322 -0.0022 0.7748
vn -0.8599 -0.0021 -0.5105
vn -0.7107 0.7008 0.0618
vn 0.4939 0.8427 -0.2141
vn 0.3189 0.0018 -0.9478
vn -0.9702 0.0025 -0.2423
vn -0.3185 0.0018 0.9479
vn 0.9705 0.0025 0.2411
vn 0.9751 -0.0022 0.2218
vn 0.7038 -0.7058 -0.0805
vn -0.7461 0.6658 0.0000
vn -0.5228 0.0162 -0.8523
vn -0.7384 0.0114 -0.6742
vn 0.7741 -0.0062 0.6331
vn 0.6422 -0.5970 -0.4808
vn -0.6566 0.5941 0.4646
vn 0.5281 -0.0025 0.8492
vn -0.9999 -0.0146 0.0000
vn 0.9999 0.0163 0.0000
vn -0.9713 -0.2379 0.0000
vn 0.7453 -0.6667 0.0000
vn -0.1877 -0.4071 -0.8939
vn 0.5174 0.1174 0.8476
vn 0.9789 0.2044 0.0000
vn -0.5174 -0.1174 -0.8476
vn 0.9081 -0.4187 0.0000
vn 0.4187 0.9081 0.0000
vn 0.1877 0.4071 0.8939
vn -0.4187 -0.9081 0.0000
vn -0.9244 0.3814 0.0000
vn 0.9244 -0.3814 0.0000
s off
f 1/1/1 2/2/1 4/3/1 3/4/1
f 3/5/2 4/6/2 8/7/2 7/8/2
f 7/9/3 8/10/3 6/11/3 5/12/3
f 5/13/4 6/14/4 2/15/4 1/16/4
f 3/17/5 7/18/5 5/19/5 1/20/5
f 8/21/6 4/22/6 2/23/6 6/24/6
f 17/25/7 10/26/7 12/27/7 18/28/7
f 18/29/8 12/30/8 16/31/8 19/32/8
f 19/33/9 16/34/9 14/35/9 20/36/9
f 26/37/10 25/38/10 22/39/10 23/40/10
f 11/41/5 15/42/5 13/43/5 9/44/5
f 16/45/11 12/46/11 10/47/11 14/48/11
f 13/49/12 20/50/12 17/51/12 9/52/12
f 15/53/13 19/33/13 20/36/13 13/54/13
f 11/55/14 18/29/14 19/32/14 15/56/14
f 9/57/15 17/25/15 18/28/15 11/58/15
f 24/59/16 23/60/16 22/61/16 21/62/16
f 28/63/17 27/64/17 24/65/17 21/66/17
f 34/67/18 33/68/18 31/69/18 30/70/18
f 27/71/19 26/72/19 23/73/19 24/74/19
f 20/36/20 14/35/20 26/75/20 27/76/20
f 10/26/21 17/25/21 28/77/21 25/78/21
f 17/51/22 20/50/22 27/79/22 28/80/22
f 14/48/23 10/47/23 25/38/23 26/37/23
f 31/81/24 32/82/24 29/83/24 30/84/24
f 33/68/25 35/85/25 32/86/25 31/69/25
f 36/87/26 34/88/26 30/89/26 29/90/26
f 32/86/27 35/85/27 39/91/27 38/92/27
f 28/63/28 21/66/28 36/93/28 35/94/28
f 21/62/26 22/61/26 34/88/26 36/87/26
f 25/95/25 28/96/25 35/85/25 33/68/25
f 22/97/18 25/95/18 33/68/18 34/67/18
f 46/98/29 45/99/29 44/100/29 43/101/29
f 29/83/30 32/82/30 38/102/30 37/103/30
f 36/87/31 29/90/31 37/104/31 40/105/31
f 35/106/32 36/107/32 40/108/32 39/109/32
f 43/110/33 44/111/33 41/112/33 42/113/33
f 46/98/4 43/101/4 49/114/4 51/115/4
f 45/116/34 48/117/34 41/118/34 44/119/34
f 48/120/35 47/121/35 42/122/35 41/123/35
f 37/103/35 38/102/35 47/121/35 48/120/35
f 40/124/34 37/125/34 48/117/34 45/116/34
f 38/126/36 39/127/36 46/128/36 47/129/36
f 39/109/29 40/108/29 45/99/29 46/98/29
f 52/130/36 51/131/36 49/132/36 50/133/36
f 47/134/37 46/135/37 51/136/37 52/137/37
f 43/110/38 42/113/38 50/138/38 49/139/38
f 42/122/2 47/121/2 52/140/2 50/141/2
f 61/142/39 54/143/39 56/144/39 62/145/39
f 62/146/40 56/147/40 60/148/40 63/149/40
f 63/150/41 60/151/41 58/152/41 64/153/41
f 70/154/42 69/155/42 66/156/42 67/157/42
f 55/158/5 59/159/5 57/160/5 53/161/5
f 60/162/43 56/163/43 54/164/43 58/165/43
f 57/166/44 64/167/44 61/168/44 53/169/44
f 59/170/45 63/150/45 64/153/45 57/171/45
f 55/172/46 62/146/46 63/149/46 59/173/46
f 53/174/47 61/142/47 62/145/47 55/175/47
f 68/176/48 67/177/48 66/178/48 65/179/48
f 72/180/49 71/181/49 68/176/49 65/179/49
f 78/182/50 77/183/50 75/184/50 74/185/50
f 71/186/51 70/187/51 67/188/51 68/189/51
f 64/153/52 58/152/52 70/154/52 71/190/52
f 54/143/53 61/142/53 72/180/53 69/191/53
f 61/142/54 64/192/54 71/181/54 72/180/54
f 58/152/55 54/193/55 69/155/55 70/154/55
f 75/194/56 76/195/56 73/196/56 74/197/56
f 77/183/57 79/198/57 76/199/57 75/184/57
f 80/200/58 78/201/58 74/202/58 73/203/58
f 76/199/59 79/198/59 83/204/59 82/205/59
f 72/180/60 65/179/60 80/200/60 79/206/60
f 65/179/58 66/178/58 78/201/58 80/200/58
f 69/155/57 72/207/57 79/198/57 77/183/57
f 66/156/50 69/155/50 77/183/50 78/182/50
f 90/208/61 89/209/61 88/210/61 87/211/61
f 73/196/62 76/195/62 82/212/62 81/213/62
f 80/200/63 73/203/63 81/214/63 84/215/63
f 79/216/64 80/217/64 84/218/64 83/219/64
f 87/220/65 88/221/65 85/222/65 86/223/65
f 90/208/2 87/211/2 93/224/2 95/225/2
f 89/226/66 92/227/66 85/228/66 88/229/66
f 92/230/67 91/231/67 86/232/67 85/233/67
f 81/213/67 82/212/67 91/231/67 92/230/67
f 84/234/66 81/235/66 92/227/66 89/226/66
f 82/236/68 83/237/68 90/238/68 91/239/68
f 83/219/61 84/218/61 89/209/61 90/208/61
f 96/240/68 95/241/68 93/242/68 94/243/68
f 91/244/69 90/245/69 95/246/69 96/247/69
f 87/220/70 86/223/70 94/248/70 93/249/70
f 86/232/4 91/231/4 96/250/4 94/251/4
