# Blender v2.79 (sub 0) OBJ File: 'modern assets.blend'
# www.blender.org
o Cube.001_Cube.002
v -1.000000 0.007282 1.000000
v -1.000000 0.219379 1.000000
v -1.000000 0.007282 -1.000000
v -1.000000 0.219379 -1.000000
v 1.000000 0.007282 1.000000
v 1.000000 0.219379 1.000000
v 1.000000 0.007282 -1.000000
v 1.000000 0.219379 -1.000000
v -0.663617 1.001171 0.771734
v -0.725373 1.760530 0.949800
v -0.529067 0.801686 -0.479031
v -0.725373 1.634990 -0.744122
v 0.790484 0.801686 0.771734
v 0.790484 1.467524 0.771734
v 0.588014 0.801686 -0.744122
v 0.790484 1.760530 -0.876124
v -0.725373 0.801686 0.013806
v -0.725373 1.600641 0.220597
v 0.790484 0.801686 0.013806
v 0.780385 1.765521 0.023237
v -0.725373 0.801686 0.392770
v 0.790484 1.760530 0.392770
v -0.725373 1.760530 0.392770
v 0.790484 0.801686 0.392770
v -0.725373 1.760530 -0.365158
v 0.790484 0.801686 -0.365158
v -0.725373 0.801686 -0.365158
v 0.799866 1.748354 -0.354252
v 0.032555 0.801686 -0.744122
v 0.032555 1.828225 -0.744122
v 0.032555 0.801686 0.771734
v 0.126591 1.718601 0.823713
v 0.091400 1.760530 0.072650
v 0.032555 0.801686 0.013806
v -0.000571 1.699903 0.467946
v 0.032555 0.801686 0.392770
v 0.032555 0.801686 -0.365158
v 0.091400 1.760530 -0.424003
v -0.346409 0.801686 -0.744122
v -0.346409 1.760530 0.771734
v -0.346409 0.801686 0.013806
v -0.346409 0.801686 0.392770
v -0.346409 0.801686 -0.365158
v -0.346409 1.828225 -0.744122
v -0.346409 0.801686 0.771734
v -0.405253 1.760530 0.072650
v -0.346409 1.760530 0.392770
v -0.405253 1.760530 -0.424003
v 0.411519 1.760530 -0.744122
v 0.411519 0.801686 0.771734
v 0.402137 1.772706 0.002900
v 0.317483 1.802459 0.340792
v 0.421619 1.755540 -0.374589
v 0.411519 0.801686 -0.744122
v 0.444645 1.821157 0.696559
v 0.411519 0.801686 0.013806
v 0.411519 0.801686 0.392770
v 0.411519 0.801686 -0.365158
v 0.883254 2.552939 -0.658758
v 0.970533 2.552939 -0.537802
v 0.849576 2.552939 -0.450522
v 0.762297 2.552939 -0.571479
v -0.785537 2.450652 0.775876
v -0.768500 2.450652 0.555813
v -0.548437 2.450652 0.572851
v -0.565475 2.450652 0.792913
v -0.107095 2.763721 -0.504809
v -0.107095 2.763721 0.153457
v 0.551170 2.763721 0.153457
v 0.551170 2.763721 -0.504809
v -0.324070 2.221272 -0.047539
v -0.212418 2.221272 -0.192161
v -0.468691 2.221272 -0.159192
v -0.357039 2.221272 -0.303813
v -0.346409 1.828225 -0.744122
v 0.032555 1.828225 -0.678685
v -0.405253 1.760530 -0.424003
v 0.091400 1.760530 -0.424003
v -0.268269 2.210199 -1.045049
v -0.125803 2.158431 -1.094813
v -0.210173 2.276505 -0.959164
v -0.023463 2.208661 -1.024383
v -1.013077 2.162181 0.422043
v -1.013077 2.162181 -0.020394
v -0.705201 2.296201 0.048306
v -0.648607 2.320837 0.422043
v 0.032555 2.021449 -0.694744
v 0.091400 2.162501 -0.465068
v 0.411519 2.021449 -0.694744
v 0.411519 2.188429 -0.422849
v 1.095115 1.875293 -0.087465
v 0.970816 2.021887 0.185398
v 0.643389 2.049213 -0.000449
v 0.767688 1.902620 -0.273312
v 0.479624 2.288285 -0.034040
v 0.857871 2.281100 -0.013703
v 0.867970 2.276109 0.355831
v 0.394970 2.318038 0.303853
v -0.322075 2.279441 0.186408
v 0.174578 2.279441 0.186408
v -0.263231 2.279441 0.506528
v 0.082607 2.218814 0.581703
v 0.486239 0.104289 0.020599
v 0.025762 0.104289 0.020599
v 0.486239 0.104289 0.481076
v 0.025762 0.104289 0.481076
v 0.486239 0.104289 -0.439878
v 0.025762 0.104289 -0.439878
v 0.025762 0.104289 -0.900355
v 0.025762 0.104289 0.941553
v -0.434714 0.104289 -0.900355
v -0.434714 0.104289 0.020599
v -0.434714 0.104289 -0.439878
v 0.486239 0.104289 0.941553
vt 0.074355 0.080184
vt 0.090581 0.080182
vt 0.090581 0.232696
vt 0.074355 0.232697
vt 0.149478 0.234216
vt 0.133262 0.234187
vt 0.133262 0.081846
vt 0.149478 0.081875
vt 0.090581 0.080194
vt 0.106803 0.080182
vt 0.106803 0.232635
vt 0.090581 0.232647
vt 0.128657 0.232860
vt 0.112453 0.232891
vt 0.112453 0.080457
vt 0.128657 0.080427
vt 0.466443 0.082627
vt 0.466443 0.235156
vt 0.313513 0.235117
vt 0.313513 0.082588
vt 0.160554 0.082588
vt 0.313513 0.082709
vt 0.313513 0.235169
vt 0.160554 0.235047
vt 0.760237 0.014815
vt 0.632318 0.081640
vt 0.622581 0.022493
vt 0.752686 0.000000
vt 0.493589 0.575498
vt 0.464959 0.434476
vt 0.521936 0.423601
vt 0.519602 0.570201
vt 0.712611 0.564340
vt 0.712956 0.420407
vt 0.769900 0.464571
vt 0.769661 0.564520
vt 0.178945 0.553768
vt 0.166860 0.410498
vt 0.222858 0.407319
vt 0.224017 0.520063
vt 0.579044 0.622357
vt 0.521966 0.622357
vt 0.521980 0.565484
vt 0.579058 0.565484
vt 0.224017 0.302018
vt 0.222515 0.300401
vt 0.862612 0.234941
vt 0.814549 0.225355
vt 0.815240 0.138194
vt 0.863728 0.160411
vt 0.579014 0.736104
vt 0.521936 0.736104
vt 0.521951 0.679231
vt 0.579029 0.679231
vt 0.598512 0.563980
vt 0.600541 0.421847
vt 0.657279 0.419519
vt 0.655562 0.564160
vt 0.813207 0.115611
vt 0.685288 0.182437
vt 0.694586 0.148396
vt 0.786722 0.065213
vt 0.813207 0.180016
vt 0.724217 0.256516
vt 0.633152 0.213839
vt 0.602231 0.155000
vt 0.540466 0.564520
vt 0.521936 0.419805
vt 0.579000 0.792978
vt 0.552417 0.792978
vt 0.871017 0.282805
vt 0.813207 0.282805
vt 1.000000 0.622284
vt 0.950570 0.622284
vt 0.969178 0.564520
vt 0.998762 0.592364
vt 0.769900 0.380955
vt 0.769900 0.324059
vt 0.874847 0.300376
vt 0.874847 0.369509
vt 0.693186 0.679231
vt 0.636107 0.679231
vt 0.636122 0.622357
vt 0.693200 0.622357
vt 0.000000 0.792100
vt 0.006157 0.744651
vt 0.063859 0.725276
vt 0.049651 0.774912
vt 0.534115 0.800110
vt 0.590738 0.792978
vt 0.590738 0.898517
vt 0.521936 0.907183
vt 0.773560 0.567028
vt 0.830290 0.564520
vt 0.849375 0.716323
vt 0.750279 0.716323
vt 0.119024 0.739469
vt 0.104816 0.789105
vt 0.636137 0.565484
vt 0.693215 0.565484
vt 0.065244 0.563083
vt 0.047784 0.410537
vt 0.096181 0.423008
vt 0.122095 0.558426
vt 0.381880 0.598246
vt 0.351229 0.447268
vt 0.407084 0.435894
vt 0.437734 0.586872
vt 0.352705 0.602727
vt 0.301145 0.487062
vt 0.750279 0.622357
vt 0.740752 0.564520
vt 0.750249 0.736104
vt 0.693171 0.736104
vt 0.750264 0.679231
vt 0.720678 0.753194
vt 0.693156 0.792978
vt 0.520035 0.820965
vt 0.499303 0.776150
vt 0.505148 0.784055
vt 0.520035 0.820965
vt 0.938318 0.668693
vt 0.985535 0.679088
vt 0.985535 0.758812
vt 0.938318 0.748418
vt 0.978145 0.359033
vt 0.978145 0.433559
vt 0.906750 0.386662
vt 0.907893 0.370694
vt 0.048177 0.674813
vt 0.104990 0.669616
vt 0.008393 0.567740
vt 0.000000 0.468251
vt 0.063685 0.844765
vt 0.119024 0.838575
vt 0.908163 0.138471
vt 0.963107 0.153539
vt 0.952117 0.189173
vt 0.906750 0.193302
vt 0.993198 0.870665
vt 0.936982 0.878428
vt 0.936982 0.800328
vt 0.993198 0.792565
vt 0.936982 0.911531
vt 0.881300 0.911531
vt 0.911739 0.792565
vt 0.924584 0.792868
vt 0.636078 0.792978
vt 0.636093 0.736104
vt 0.458885 0.690236
vt 0.391017 0.704056
vt 0.879801 0.438642
vt 0.936850 0.438642
vt 0.938321 0.543062
vt 0.869001 0.543062
vt 0.685409 0.278912
vt 0.662961 0.278914
vt 0.662961 0.256518
vt 0.685409 0.256516
vt 0.574039 0.300376
vt 0.586582 0.300847
vt 0.510101 0.303452
vt 0.521936 0.300376
vt 0.881300 0.668693
vt 0.938318 0.670808
vt 0.938318 0.792424
vt 0.924489 0.792565
vt 0.602231 0.256543
vt 0.635462 0.256516
vt 0.635462 0.289645
vt 0.602231 0.289672
vt 0.604524 0.252144
vt 0.606171 0.254779
vt 0.457288 0.960355
vt 0.400280 0.960355
vt 0.425721 0.855826
vt 0.421491 0.854638
vt 0.358183 0.957727
vt 0.301145 0.958848
vt 0.358183 0.854895
vt 0.354554 0.855752
vt 0.769900 0.537530
vt 0.769900 0.438721
vt 0.869001 0.438642
vt 0.869001 0.537451
vt 0.313784 0.704056
vt 0.388580 0.704056
vt 0.400280 0.854895
vt 0.301145 0.854895
vt 0.421029 0.704056
vt 0.470329 0.704539
vt 0.499303 0.854638
vt 0.400280 0.854638
vt 0.779429 0.716323
vt 0.825825 0.718698
vt 0.849362 0.866111
vt 0.750279 0.866111
vt 0.635463 0.283949
vt 0.635463 0.256516
vt 0.662961 0.256525
vt 0.662961 0.283958
vt 0.187313 0.906706
vt 0.187313 0.981241
vt 0.119542 0.965452
vt 0.119024 0.947988
vt 0.728932 0.905610
vt 0.728932 0.980175
vt 0.659622 0.962337
vt 0.659469 0.945220
vt 0.960247 0.359033
vt 0.906750 0.307043
vt 0.947982 0.248565
vt 0.960247 0.261573
vt 0.507066 0.704056
vt 0.520035 0.708273
vt 0.000000 0.000000
vt 0.000000 0.000000
vt 0.000000 0.000000
vt 0.000000 0.000000
vt 0.000000 0.000000
vt 0.000000 0.000000
vt 0.287900 0.356456
vt 0.297610 0.300401
vt 0.297610 0.300401
vt 0.297610 0.358119
vt 0.150120 0.807896
vt 0.171379 0.815608
vt 0.162387 0.828808
vt 0.134526 0.818702
vt 0.111855 0.935154
vt 0.111855 0.992894
vt 0.066954 0.988237
vt 0.055685 0.968529
vt 0.273945 0.796670
vt 0.300084 0.755210
vt 0.300084 0.866331
vt 0.283857 0.868821
vt 0.193806 0.906706
vt 0.119024 0.906706
vt 0.232634 0.611574
vt 0.279506 0.600672
vt 0.279506 0.667074
vt 0.224017 0.667773
vt 0.466703 0.881557
vt 0.516949 0.854638
vt 0.516949 0.949757
vt 0.457288 0.954712
vt 0.821956 0.866111
vt 0.876478 0.867192
vt 0.876478 0.959810
vt 0.826292 0.957845
vt 0.599020 0.907282
vt 0.647410 0.910223
vt 0.647410 0.989732
vt 0.590738 0.989949
vt 0.399902 0.855501
vt 0.399902 0.912386
vt 0.364661 0.903041
vt 0.358183 0.854895
vt 0.055685 1.000000
vt 0.000000 1.000000
vt 0.006898 0.960742
vt 0.047483 0.935154
vt 0.248942 0.915348
vt 0.298870 0.912949
vt 0.298870 0.978261
vt 0.250372 0.975929
vt 0.400894 0.407289
vt 0.456749 0.395915
vt 0.917740 0.248565
vt 0.963107 0.244435
vt 0.300084 0.669616
vt 0.300084 0.726496
vt 0.262169 0.755210
vt 0.257685 0.704966
vt 0.983809 0.290505
vt 0.983809 0.347081
vt 0.960247 0.296302
vt 0.962535 0.248565
vt 0.073887 0.880888
vt 0.117870 0.844765
vt 0.117870 0.905018
vt 0.074507 0.919470
vt 0.193806 0.976827
vt 0.196871 0.920082
vt 0.248942 0.912949
vt 0.248942 0.984189
vt 0.750279 0.866111
vt 0.821956 0.869997
vt 0.821956 0.948456
vt 0.750279 0.944570
vt 0.940526 0.911531
vt 0.991401 0.912592
vt 0.991401 0.990109
vt 0.940526 0.989048
vt 0.652284 0.341831
vt 0.707962 0.342720
vt 0.940526 0.911531
vt 0.940526 0.986081
vt 0.892333 0.977287
vt 0.881300 0.925616
vt 0.991658 0.516687
vt 0.938321 0.517355
vt 0.938321 0.439310
vt 0.991658 0.438642
vt 0.073887 0.924121
vt 0.000000 0.935154
vt 0.000000 0.855798
vt 0.073887 0.844765
vt 0.918158 0.003599
vt 0.977866 0.000000
vt 0.977866 0.080108
vt 0.918158 0.083707
vt 0.119042 0.807896
vt 0.119024 0.738756
vt 0.188346 0.738756
vt 0.188363 0.807896
vt 0.257667 0.738756
vt 0.257685 0.807896
vt 0.188328 0.669616
vt 0.257649 0.669616
vt 0.590738 0.907201
vt 0.590738 0.976341
vt 0.521416 0.976323
vt 0.521416 0.907183
vt 0.659469 0.907282
vt 0.602904 0.899884
vt 0.590738 0.792978
vt 0.659469 0.801967
vt 0.131091 0.663957
vt 0.062012 0.669616
vt 0.883181 0.564520
vt 0.940189 0.564520
vt 0.950570 0.668693
vt 0.881300 0.668693
vt 0.671671 0.799008
vt 0.728399 0.792978
vt 0.728399 0.898283
vt 0.659469 0.905610
vt 0.194452 0.807896
vt 0.251460 0.807896
vt 0.263076 0.912949
vt 0.193806 0.912949
vt 0.769900 0.437850
vt 0.874847 0.438642
vt 0.813207 0.070279
vt 0.813207 0.013413
vt 0.918158 0.000000
vt 0.918158 0.069097
vt 0.813207 0.127144
vt 0.918158 0.138194
vn -1.0000 0.0000 0.0000
vn 0.0000 0.0000 -1.0000
vn 1.0000 0.0000 0.0000
vn 0.0000 0.0000 1.0000
vn 0.0000 -1.0000 0.0000
vn 0.0000 1.0000 0.0000
vn -0.9310 -0.1511 -0.3323
vn -0.2310 -0.0425 -0.9720
vn 0.2217 -0.0926 0.9707
vn -0.1121 0.2336 0.9658
vn -0.1960 0.9701 0.1433
vn 0.9997 0.0001 0.0257
vn -0.9962 -0.0436 0.0750
vn -0.8636 -0.4880 0.1269
vn 0.9999 0.0053 -0.0135
vn 0.9658 -0.1219 -0.2288
vn -0.2730 0.9566 -0.1021
vn -0.9778 -0.0029 0.2097
vn -0.9921 0.1256 0.0000
vn -0.1801 0.9836 -0.0020
vn -1.0000 0.0097 0.0000
vn 0.9902 -0.1382 0.0209
vn -0.2874 0.9564 0.0525
vn 0.1795 -0.0000 0.9838
vn -0.3724 -0.1694 -0.9125
vn -0.2656 -0.9268 0.2656
vn 0.7547 0.6560 0.0000
vn -0.9767 0.1172 0.1795
vn 0.2099 0.4197 0.8831
vn 0.1315 0.9902 -0.0479
vn -0.0621 -0.0245 0.9978
vn -0.0808 0.0460 0.9957
vn 0.3862 0.8841 0.2632
vn -0.5201 0.7939 -0.3149
vn 0.0520 -0.0791 -0.9955
vn -0.8768 0.4335 -0.2080
vn 0.0000 0.2186 -0.9758
vn 0.9943 0.1065 0.0000
vn 0.9706 -0.1661 0.1745
vn -0.0228 0.2670 -0.9634
vn -0.2787 0.2382 0.9304
vn -0.9256 0.0313 -0.3772
vn 0.4864 0.3512 -0.8000
vn 0.8279 0.2474 0.5034
vn -0.9810 -0.1941 0.0000
vn 0.0491 -0.1026 -0.9935
vn 0.0727 -0.1132 0.9909
vn 0.7754 0.6040 -0.1843
vn -0.9727 -0.0176 0.2313
vn -0.2228 0.2678 -0.9373
vn 0.8560 -0.2729 -0.4391
vn 0.0584 0.7707 -0.6345
vn -0.0496 -0.7114 -0.7010
vn -0.9569 0.2904 -0.0008
vn 0.1362 0.7504 0.6468
vn -0.3991 0.9169 0.0000
vn 0.0115 -0.0537 0.9985
vn -0.0101 -0.2401 -0.9707
vn 0.8647 0.4758 -0.1608
vn 0.0000 0.8521 -0.5233
vn 0.9997 0.0146 -0.0194
vn -0.1420 0.1036 0.9844
vn 0.0190 0.2125 -0.9770
vn 0.2757 0.8935 -0.3544
vn -0.2826 -0.0565 0.9576
vn 0.2664 0.4908 -0.8295
vn 0.4078 -0.8600 0.3067
vn 0.0600 0.9978 -0.0286
vn -0.1013 0.0862 0.9911
vn -0.9596 0.1262 -0.2515
vn 0.9882 -0.1506 -0.0290
vn 0.0638 0.9941 0.0872
vn -0.2379 -0.1715 0.9560
vn 0.0000 0.2141 -0.9768
vn 0.9612 -0.1965 0.1935
vn 0.0000 0.2366 0.9716
vn 0.0000 -0.1256 -0.9921
vn 1.0000 -0.0097 0.0000
vn 0.0000 0.1065 -0.9943
vn 0.0000 0.0097 1.0000
s off
f 1/1/1 2/2/1 4/3/1 3/4/1
f 3/5/2 4/6/2 8/7/2 7/8/2
f 7/9/3 8/10/3 6/11/3 5/12/3
f 5/13/4 6/14/4 2/15/4 1/16/4
f 3/17/5 7/18/5 5/19/5 1/20/5
f 8/21/6 4/22/6 2/23/6 6/24/6
f 27/25/7 25/26/7 12/27/7 11/28/7
f 54/29/8 49/30/8 16/31/8 15/32/8
f 24/33/3 22/34/3 14/35/3 13/36/3
f 45/37/9 40/38/9 10/39/9 9/40/9
f 57/41/5 24/42/5 13/43/5 50/44/5
f 10/39/10 40/38/10 63/45/10 64/46/10
f 48/47/11 25/48/11 18/49/11 46/50/11
f 58/51/5 26/52/5 19/53/5 56/54/5
f 26/55/12 28/56/12 20/57/12 19/58/12
f 21/59/1 23/60/1 18/61/1 17/62/1
f 9/63/13 10/64/13 23/60/13 21/59/13
f 18/61/14 23/60/14 83/65/14 84/66/14
f 56/54/5 19/53/5 24/42/5 57/41/5
f 19/58/15 20/57/15 22/34/15 24/33/15
f 15/67/16 16/68/16 28/56/16 26/55/16
f 54/69/5 15/70/5 26/52/5 58/51/5
f 44/71/17 12/72/17 25/48/17 48/47/17
f 17/62/1 18/61/1 25/26/1 27/25/1
f 30/73/18 38/74/18 88/75/18 87/76/18
f 43/77/19 39/78/19 111/79/19 113/80/19
f 41/81/5 34/82/5 36/83/5 42/84/5
f 51/85/20 33/86/20 35/87/20 52/88/20
f 31/89/21 36/90/21 106/91/21 110/92/21
f 51/93/22 53/94/22 70/95/22 69/96/22
f 52/88/23 35/87/23 32/97/23 55/98/23
f 42/84/5 36/83/5 31/99/5 45/100/5
f 50/101/24 55/102/24 32/103/24 31/104/24
f 39/105/2 44/106/2 30/107/2 29/108/2
f 11/109/25 12/110/25 44/106/25 39/105/25
f 21/111/26 42/84/26 45/100/26 9/112/26
f 27/113/5 43/114/5 41/81/5 17/115/5
f 17/115/5 41/81/5 42/84/5 21/111/5
f 11/116/5 39/117/5 43/114/5 27/113/5
f 38/118/27 30/119/27 76/120/27 78/121/27
f 46/122/28 47/123/28 101/124/28 99/125/28
f 46/126/29 33/127/29 72/128/29 71/129/29
f 35/87/30 47/130/30 40/131/30 32/97/30
f 31/104/31 32/103/31 40/38/31 45/37/31
f 13/132/32 14/133/32 55/102/32 50/101/32
f 22/134/33 52/88/33 55/98/33 14/135/33
f 53/136/34 51/137/34 93/138/34 94/139/34
f 20/140/35 51/141/35 95/142/35 96/143/35
f 49/144/36 53/145/36 62/146/36 59/147/36
f 29/148/5 54/69/5 58/51/5 37/149/5
f 34/82/5 56/54/5 57/41/5 36/83/5
f 39/105/37 29/108/37 109/150/37 111/151/37
f 58/152/38 56/153/38 103/154/38 107/155/38
f 29/108/2 30/107/2 49/30/2 54/29/2
f 60/156/6 59/157/6 62/158/6 61/159/6
f 28/56/39 16/68/39 60/160/39 61/161/39
f 16/31/40 49/30/40 59/162/40 60/163/40
f 53/164/41 28/165/41 61/166/41 62/167/41
f 66/168/6 65/169/6 64/170/6 63/171/6
f 23/60/42 10/64/42 64/172/42 65/173/42
f 47/174/43 23/175/43 65/176/43 66/177/43
f 40/178/44 47/179/44 66/180/44 63/181/44
f 70/182/6 67/183/6 68/184/6 69/185/6
f 38/186/45 33/187/45 68/188/45 67/189/45
f 53/190/46 38/191/46 67/192/46 70/193/46
f 33/194/47 51/195/47 69/196/47 68/197/47
f 74/198/6 73/199/6 71/200/6 72/201/6
f 33/202/48 38/203/48 74/204/48 72/205/48
f 48/206/49 46/207/49 71/208/49 73/209/49
f 38/210/50 48/211/50 73/212/50 74/213/50
f 78/121/51 76/120/51 80/214/51 82/215/51
f 44/216/4 48/217/4 77/218/4 75/219/4
f 48/217/4 38/220/4 78/221/4 77/218/4
f 30/222/6 44/223/6 75/224/6 76/225/6
f 80/226/52 79/227/52 81/228/52 82/229/52
f 76/230/53 75/231/53 79/232/53 80/233/53
f 75/234/54 77/235/54 81/236/54 79/237/54
f 77/238/55 78/239/55 82/229/55 81/228/55
f 85/240/56 84/241/56 83/242/56 86/243/56
f 23/244/57 47/245/57 86/246/57 83/247/57
f 46/248/58 18/249/58 84/250/58 85/251/58
f 47/252/59 46/253/59 85/254/59 86/255/59
f 89/256/60 87/257/60 88/258/60 90/259/60
f 53/260/61 49/261/61 89/262/61 90/263/61
f 38/264/62 53/265/62 90/266/62 88/267/62
f 49/30/63 30/107/63 87/268/63 89/269/63
f 91/270/64 94/139/64 93/138/64 92/271/64
f 51/272/65 20/273/65 92/274/65 93/275/65
f 28/276/66 53/277/66 94/278/66 91/279/66
f 20/280/67 28/281/67 91/282/67 92/283/67
f 96/284/68 95/285/68 98/286/68 97/287/68
f 52/288/69 22/289/69 97/290/69 98/291/69
f 51/292/70 52/293/70 98/294/70 95/295/70
f 22/34/71 20/57/71 96/296/71 97/297/71
f 100/298/72 99/299/72 101/300/72 102/301/72
f 47/302/73 35/303/73 102/304/73 101/305/73
f 33/306/74 46/307/74 99/308/74 100/309/74
f 35/310/75 33/311/75 100/312/75 102/313/75
f 111/314/5 109/315/5 108/316/5 113/317/5
f 113/317/5 108/316/5 104/318/5 112/319/5
f 108/316/5 107/320/5 103/321/5 104/318/5
f 106/322/5 105/323/5 114/324/5 110/325/5
f 57/326/38 50/327/38 114/328/38 105/329/38
f 50/101/76 31/104/76 110/330/76 114/331/76
f 36/332/77 57/333/77 105/334/77 106/335/77
f 29/336/78 37/337/78 108/338/78 109/339/78
f 37/340/79 58/341/79 107/342/79 108/343/79
f 41/344/19 43/77/19 113/80/19 112/345/19
f 34/346/80 41/347/80 112/348/80 104/349/80
f 56/350/80 34/346/80 104/349/80 103/351/80
