# Blender v2.79 (sub 0) OBJ File: 'Assets.blend'
# www.blender.org
o Cube
v 0.529318 0.679467 -1.048464
v 0.529318 0.679467 1.048464
v -0.529318 0.679467 1.048464
v -0.529318 0.679467 -1.048464
v 0.529319 0.769627 -1.048464
v 0.529318 0.769627 1.048464
v -0.529319 0.769627 1.048464
v -0.529318 0.769627 -1.048464
v -0.461717 0.050000 0.959769
v -0.461717 0.713822 0.959769
v -0.461717 0.050000 0.872443
v -0.461717 0.713822 0.872443
v 0.455427 0.050000 0.959769
v 0.455427 0.713822 0.959769
v 0.455427 0.050000 0.872443
v 0.455427 0.713822 0.872443
v -0.461717 0.050000 -0.879627
v -0.461717 0.713822 -0.879627
v -0.461717 0.050000 -0.966954
v -0.461717 0.713822 -0.966954
v 0.455427 0.050000 -0.879627
v 0.455427 0.713822 -0.879627
v 0.455427 0.050000 -0.966954
v 0.455427 0.713822 -0.966954
vt 0.006439 0.865590
vt 0.006439 0.657982
vt 0.121050 0.657982
vt 0.121050 0.865590
vt 0.357477 0.647534
vt 0.000000 0.647534
vt 0.000000 0.000000
vt 0.357476 0.000000
vt 0.401114 0.652455
vt 0.370669 0.652455
vt 0.370669 0.004922
vt 0.401114 0.004922
vt 0.285047 1.000000
vt 0.254602 1.000000
vt 0.254602 0.647534
vt 0.285047 0.647534
vt 0.431559 0.652455
vt 0.401114 0.652455
vt 0.401114 0.004922
vt 0.431559 0.004922
vt 0.254602 1.000000
vt 0.224157 1.000000
vt 0.224157 0.647534
vt 0.254602 0.647534
vt 0.986458 0.730164
vt 0.765443 0.730164
vt 0.765443 0.702814
vt 0.986458 0.702814
vt 0.764169 0.012304
vt 0.988325 0.012304
vt 0.988326 0.317661
vt 0.764169 0.317661
vt 0.765443 0.648115
vt 0.986458 0.648115
vt 0.986458 0.675464
vt 0.765443 0.675464
vt 0.764169 0.317661
vt 0.988325 0.317661
vt 0.988326 0.623019
vt 0.764169 0.623019
vt 0.312396 0.647534
vt 0.312397 0.952891
vt 0.285047 0.952891
vt 0.285047 0.647534
vt 0.312397 0.952891
vt 0.312397 0.647534
vt 0.339746 0.647534
vt 0.339746 0.952891
vt 0.553744 0.462172
vt 0.746819 0.462172
vt 0.746819 0.486064
vt 0.553744 0.486064
vt 0.482215 0.452895
vt 0.482215 0.257076
vt 0.748968 0.257076
vt 0.748968 0.452895
vt 0.746819 0.520950
vt 0.553744 0.520950
vt 0.553744 0.497058
vt 0.746819 0.497058
vt 0.482134 0.236935
vt 0.482134 0.041116
vt 0.748887 0.041116
vt 0.748887 0.236935
vt 0.394446 0.647534
vt 0.394446 0.952891
vt 0.367096 0.952891
vt 0.367096 0.647534
vt 0.339746 0.952891
vt 0.339746 0.647534
vt 0.367096 0.647534
vt 0.367096 0.952891
vn 0.0000 -1.0000 0.0000
vn 0.0000 1.0000 0.0000
vn 1.0000 0.0000 0.0000
vn -0.0000 -0.0000 1.0000
vn -1.0000 -0.0000 -0.0000
vn 0.0000 0.0000 -1.0000
s off
f 1/1/1 2/2/1 3/3/1 4/4/1
f 5/5/2 8/6/2 7/7/2 6/8/2
f 1/9/3 5/10/3 6/11/3 2/12/3
f 2/13/4 6/14/4 7/15/4 3/16/4
f 3/17/5 7/18/5 8/19/5 4/20/5
f 5/21/6 1/22/6 4/23/6 8/24/6
f 9/25/5 10/26/5 12/27/5 11/28/5
f 11/29/6 12/30/6 16/31/6 15/32/6
f 15/33/3 16/34/3 14/35/3 13/36/3
f 13/37/4 14/38/4 10/39/4 9/40/4
f 11/41/1 15/42/1 13/43/1 9/44/1
f 16/45/2 12/46/2 10/47/2 14/48/2
f 17/49/5 18/50/5 20/51/5 19/52/5
f 19/53/6 20/54/6 24/55/6 23/56/6
f 23/57/3 24/58/3 22/59/3 21/60/3
f 21/61/4 22/62/4 18/63/4 17/64/4
f 19/65/1 23/66/1 21/67/1 17/68/1
f 24/69/2 20/70/2 18/71/2 22/72/2
